<svg width="69" height="19" viewBox="0 0 69 19" fill="none" xmlns="http://www.w3.org/2000/svg">
<path d="M8.37891 3.21094L3.28125 18H0.199219L6.62109 0.9375H8.58984L8.37891 3.21094ZM12.6445 18L7.53516 3.21094L7.3125 0.9375H9.29297L15.7383 18H12.6445ZM12.3984 11.6719V14.0039H3.11719V11.6719H12.3984ZM20.2205 7.89844V18H17.3962V5.32031H20.0564L20.2205 7.89844ZM19.7634 11.1914L18.8025 11.1797C18.8025 10.3047 18.9119 9.49609 19.1306 8.75391C19.3494 8.01172 19.6697 7.36719 20.0916 6.82031C20.5134 6.26562 21.0369 5.83984 21.6619 5.54297C22.2947 5.23828 23.0252 5.08594 23.8533 5.08594C24.4314 5.08594 24.9587 5.17188 25.4353 5.34375C25.9197 5.50781 26.3377 5.76953 26.6892 6.12891C27.0486 6.48828 27.322 6.94922 27.5095 7.51172C27.7048 8.07422 27.8025 8.75391 27.8025 9.55078V18H24.9783V9.79688C24.9783 9.17969 24.8845 8.69531 24.697 8.34375C24.5173 7.99219 24.2556 7.74219 23.9119 7.59375C23.5759 7.4375 23.1736 7.35938 22.7048 7.35938C22.1736 7.35938 21.7205 7.46094 21.3455 7.66406C20.9783 7.86719 20.6775 8.14453 20.4431 8.49609C20.2087 8.84766 20.0369 9.25391 19.9275 9.71484C19.8181 10.1758 19.7634 10.668 19.7634 11.1914ZM27.6267 10.4414L26.3025 10.7344C26.3025 9.96875 26.408 9.24609 26.6189 8.56641C26.8377 7.87891 27.1541 7.27734 27.5681 6.76172C27.99 6.23828 28.5095 5.82812 29.1267 5.53125C29.7439 5.23438 30.4509 5.08594 31.2478 5.08594C31.8962 5.08594 32.4744 5.17578 32.9822 5.35547C33.4978 5.52734 33.9353 5.80078 34.2947 6.17578C34.6541 6.55078 34.9275 7.03906 35.115 7.64062C35.3025 8.23438 35.3962 8.95312 35.3962 9.79688V18H32.5603V9.78516C32.5603 9.14453 32.4666 8.64844 32.2791 8.29688C32.0994 7.94531 31.8416 7.70312 31.5056 7.57031C31.1697 7.42969 30.7673 7.35938 30.2986 7.35938C29.8611 7.35938 29.4744 7.44141 29.1384 7.60547C28.8103 7.76172 28.533 7.98438 28.3064 8.27344C28.0798 8.55469 27.908 8.87891 27.7908 9.24609C27.6814 9.61328 27.6267 10.0117 27.6267 10.4414ZM41.5659 5.32031V18H38.73V5.32031H41.5659ZM38.5425 1.99219C38.5425 1.5625 38.6831 1.20703 38.9644 0.925781C39.2534 0.636719 39.6519 0.492188 40.1597 0.492188C40.6597 0.492188 41.0542 0.636719 41.3433 0.925781C41.6323 1.20703 41.7769 1.5625 41.7769 1.99219C41.7769 2.41406 41.6323 2.76562 41.3433 3.04688C41.0542 3.32812 40.6597 3.46875 40.1597 3.46875C39.6519 3.46875 39.2534 3.32812 38.9644 3.04688C38.6831 2.76562 38.5425 2.41406 38.5425 1.99219ZM50.0794 15.9844C50.5403 15.9844 50.9544 15.8945 51.3216 15.7148C51.6966 15.5273 51.9973 15.2695 52.2239 14.9414C52.4583 14.6133 52.5872 14.2344 52.6106 13.8047H55.2708C55.2552 14.625 55.013 15.3711 54.5442 16.043C54.0755 16.7148 53.4544 17.25 52.6809 17.6484C51.9075 18.0391 51.052 18.2344 50.1145 18.2344C49.1458 18.2344 48.302 18.0703 47.5833 17.7422C46.8645 17.4062 46.2669 16.9453 45.7903 16.3594C45.3138 15.7734 44.9544 15.0977 44.7122 14.332C44.4778 13.5664 44.3606 12.7461 44.3606 11.8711V11.4609C44.3606 10.5859 44.4778 9.76562 44.7122 9C44.9544 8.22656 45.3138 7.54688 45.7903 6.96094C46.2669 6.375 46.8645 5.91797 47.5833 5.58984C48.302 5.25391 49.1419 5.08594 50.1028 5.08594C51.1184 5.08594 52.0091 5.28906 52.7747 5.69531C53.5403 6.09375 54.1419 6.65234 54.5794 7.37109C55.0247 8.08203 55.2552 8.91016 55.2708 9.85547H52.6106C52.5872 9.38672 52.47 8.96484 52.2591 8.58984C52.0559 8.20703 51.7669 7.90234 51.3919 7.67578C51.0247 7.44922 50.5833 7.33594 50.0677 7.33594C49.4973 7.33594 49.0247 7.45312 48.6497 7.6875C48.2747 7.91406 47.9817 8.22656 47.7708 8.625C47.5598 9.01562 47.4075 9.45703 47.3138 9.94922C47.2278 10.4336 47.1848 10.9375 47.1848 11.4609V11.8711C47.1848 12.3945 47.2278 12.9023 47.3138 13.3945C47.3997 13.8867 47.5481 14.3281 47.7591 14.7188C47.9778 15.1016 48.2747 15.4102 48.6497 15.6445C49.0247 15.8711 49.5013 15.9844 50.0794 15.9844ZM64.8272 15.457V9.41016C64.8272 8.95703 64.7452 8.56641 64.5811 8.23828C64.417 7.91016 64.167 7.65625 63.8311 7.47656C63.503 7.29688 63.0889 7.20703 62.5889 7.20703C62.128 7.20703 61.7295 7.28516 61.3936 7.44141C61.0577 7.59766 60.7959 7.80859 60.6084 8.07422C60.4209 8.33984 60.3272 8.64062 60.3272 8.97656H57.5147C57.5147 8.47656 57.6358 7.99219 57.878 7.52344C58.1202 7.05469 58.4717 6.63672 58.9327 6.26953C59.3936 5.90234 59.9444 5.61328 60.585 5.40234C61.2256 5.19141 61.9444 5.08594 62.7412 5.08594C63.6944 5.08594 64.5381 5.24609 65.2725 5.56641C66.0147 5.88672 66.5967 6.37109 67.0186 7.01953C67.4483 7.66016 67.6631 8.46484 67.6631 9.43359V15.0703C67.6631 15.6484 67.7022 16.168 67.7803 16.6289C67.8662 17.082 67.9873 17.4766 68.1436 17.8125V18H65.2491C65.1162 17.6953 65.0108 17.3086 64.9327 16.8398C64.8623 16.3633 64.8272 15.9023 64.8272 15.457ZM65.2373 10.2891L65.2608 12.0352H63.2334C62.71 12.0352 62.2491 12.0859 61.8506 12.1875C61.4522 12.2812 61.1202 12.4219 60.8545 12.6094C60.5889 12.7969 60.3897 13.0234 60.2569 13.2891C60.1241 13.5547 60.0577 13.8555 60.0577 14.1914C60.0577 14.5273 60.1358 14.8359 60.292 15.1172C60.4483 15.3906 60.6748 15.6055 60.9717 15.7617C61.2764 15.918 61.6436 15.9961 62.0733 15.9961C62.6514 15.9961 63.1553 15.8789 63.585 15.6445C64.0225 15.4023 64.3662 15.1094 64.6162 14.7656C64.8662 14.4141 64.9991 14.082 65.0147 13.7695L65.9287 15.0234C65.835 15.3438 65.6748 15.6875 65.4483 16.0547C65.2217 16.4219 64.9248 16.7734 64.5577 17.1094C64.1983 17.4375 63.7647 17.707 63.2569 17.918C62.7569 18.1289 62.1787 18.2344 61.5225 18.2344C60.6944 18.2344 59.9561 18.0703 59.3077 17.7422C58.6592 17.4062 58.1514 16.957 57.7842 16.3945C57.417 15.8242 57.2334 15.1797 57.2334 14.4609C57.2334 13.7891 57.3584 13.1953 57.6084 12.6797C57.8662 12.1562 58.2412 11.7188 58.7334 11.3672C59.2334 11.0156 59.8428 10.75 60.5616 10.5703C61.2803 10.3828 62.1006 10.2891 63.0225 10.2891H65.2373Z" fill="black"/>
</svg>
