<svg width="121" height="39" viewBox="0 0 121 39" fill="none" xmlns="http://www.w3.org/2000/svg">
<path d="M59.3789 13.2109L54.2812 28H51.1992L57.6211 10.9375H59.5898L59.3789 13.2109ZM63.6445 28L58.5352 13.2109L58.3125 10.9375H60.293L66.7383 28H63.6445ZM63.3984 21.6719V24.0039H54.1172V21.6719H63.3984ZM71.2205 17.8984V28H68.3962V15.3203H71.0564L71.2205 17.8984ZM70.7634 21.1914L69.8025 21.1797C69.8025 20.3047 69.9119 19.4961 70.1306 18.7539C70.3494 18.0117 70.6697 17.3672 71.0916 16.8203C71.5134 16.2656 72.0369 15.8398 72.6619 15.543C73.2947 15.2383 74.0252 15.0859 74.8533 15.0859C75.4314 15.0859 75.9587 15.1719 76.4353 15.3438C76.9197 15.5078 77.3377 15.7695 77.6892 16.1289C78.0486 16.4883 78.322 16.9492 78.5095 17.5117C78.7048 18.0742 78.8025 18.7539 78.8025 19.5508V28H75.9783V19.7969C75.9783 19.1797 75.8845 18.6953 75.697 18.3438C75.5173 17.9922 75.2556 17.7422 74.9119 17.5938C74.5759 17.4375 74.1736 17.3594 73.7048 17.3594C73.1736 17.3594 72.7205 17.4609 72.3455 17.6641C71.9783 17.8672 71.6775 18.1445 71.4431 18.4961C71.2087 18.8477 71.0369 19.2539 70.9275 19.7148C70.8181 20.1758 70.7634 20.668 70.7634 21.1914ZM78.6267 20.4414L77.3025 20.7344C77.3025 19.9688 77.408 19.2461 77.6189 18.5664C77.8377 17.8789 78.1541 17.2773 78.5681 16.7617C78.99 16.2383 79.5095 15.8281 80.1267 15.5312C80.7439 15.2344 81.4509 15.0859 82.2478 15.0859C82.8962 15.0859 83.4744 15.1758 83.9822 15.3555C84.4978 15.5273 84.9353 15.8008 85.2947 16.1758C85.6541 16.5508 85.9275 17.0391 86.115 17.6406C86.3025 18.2344 86.3962 18.9531 86.3962 19.7969V28H83.5603V19.7852C83.5603 19.1445 83.4666 18.6484 83.2791 18.2969C83.0994 17.9453 82.8416 17.7031 82.5056 17.5703C82.1697 17.4297 81.7673 17.3594 81.2986 17.3594C80.8611 17.3594 80.4744 17.4414 80.1384 17.6055C79.8103 17.7617 79.533 17.9844 79.3064 18.2734C79.0798 18.5547 78.908 18.8789 78.7908 19.2461C78.6814 19.6133 78.6267 20.0117 78.6267 20.4414ZM92.5659 15.3203V28H89.73V15.3203H92.5659ZM89.5425 11.9922C89.5425 11.5625 89.6831 11.207 89.9644 10.9258C90.2534 10.6367 90.6519 10.4922 91.1597 10.4922C91.6597 10.4922 92.0542 10.6367 92.3433 10.9258C92.6323 11.207 92.7769 11.5625 92.7769 11.9922C92.7769 12.4141 92.6323 12.7656 92.3433 13.0469C92.0542 13.3281 91.6597 13.4688 91.1597 13.4688C90.6519 13.4688 90.2534 13.3281 89.9644 13.0469C89.6831 12.7656 89.5425 12.4141 89.5425 11.9922ZM101.079 25.9844C101.54 25.9844 101.954 25.8945 102.322 25.7148C102.697 25.5273 102.997 25.2695 103.224 24.9414C103.458 24.6133 103.587 24.2344 103.611 23.8047H106.271C106.255 24.625 106.013 25.3711 105.544 26.043C105.075 26.7148 104.454 27.25 103.681 27.6484C102.908 28.0391 102.052 28.2344 101.115 28.2344C100.146 28.2344 99.302 28.0703 98.5833 27.7422C97.8645 27.4062 97.2669 26.9453 96.7903 26.3594C96.3138 25.7734 95.9544 25.0977 95.7122 24.332C95.4778 23.5664 95.3606 22.7461 95.3606 21.8711V21.4609C95.3606 20.5859 95.4778 19.7656 95.7122 19C95.9544 18.2266 96.3138 17.5469 96.7903 16.9609C97.2669 16.375 97.8645 15.918 98.5833 15.5898C99.302 15.2539 100.142 15.0859 101.103 15.0859C102.118 15.0859 103.009 15.2891 103.775 15.6953C104.54 16.0938 105.142 16.6523 105.579 17.3711C106.025 18.082 106.255 18.9102 106.271 19.8555H103.611C103.587 19.3867 103.47 18.9648 103.259 18.5898C103.056 18.207 102.767 17.9023 102.392 17.6758C102.025 17.4492 101.583 17.3359 101.068 17.3359C100.497 17.3359 100.025 17.4531 99.6497 17.6875C99.2747 17.9141 98.9817 18.2266 98.7708 18.625C98.5598 19.0156 98.4075 19.457 98.3138 19.9492C98.2278 20.4336 98.1848 20.9375 98.1848 21.4609V21.8711C98.1848 22.3945 98.2278 22.9023 98.3138 23.3945C98.3997 23.8867 98.5481 24.3281 98.7591 24.7188C98.9778 25.1016 99.2747 25.4102 99.6497 25.6445C100.025 25.8711 100.501 25.9844 101.079 25.9844ZM115.827 25.457V19.4102C115.827 18.957 115.745 18.5664 115.581 18.2383C115.417 17.9102 115.167 17.6562 114.831 17.4766C114.503 17.2969 114.089 17.207 113.589 17.207C113.128 17.207 112.73 17.2852 112.394 17.4414C112.058 17.5977 111.796 17.8086 111.608 18.0742C111.421 18.3398 111.327 18.6406 111.327 18.9766H108.515C108.515 18.4766 108.636 17.9922 108.878 17.5234C109.12 17.0547 109.472 16.6367 109.933 16.2695C110.394 15.9023 110.944 15.6133 111.585 15.4023C112.226 15.1914 112.944 15.0859 113.741 15.0859C114.694 15.0859 115.538 15.2461 116.272 15.5664C117.015 15.8867 117.597 16.3711 118.019 17.0195C118.448 17.6602 118.663 18.4648 118.663 19.4336V25.0703C118.663 25.6484 118.702 26.168 118.78 26.6289C118.866 27.082 118.987 27.4766 119.144 27.8125V28H116.249C116.116 27.6953 116.011 27.3086 115.933 26.8398C115.862 26.3633 115.827 25.9023 115.827 25.457ZM116.237 20.2891L116.261 22.0352H114.233C113.71 22.0352 113.249 22.0859 112.851 22.1875C112.452 22.2812 112.12 22.4219 111.855 22.6094C111.589 22.7969 111.39 23.0234 111.257 23.2891C111.124 23.5547 111.058 23.8555 111.058 24.1914C111.058 24.5273 111.136 24.8359 111.292 25.1172C111.448 25.3906 111.675 25.6055 111.972 25.7617C112.276 25.918 112.644 25.9961 113.073 25.9961C113.651 25.9961 114.155 25.8789 114.585 25.6445C115.022 25.4023 115.366 25.1094 115.616 24.7656C115.866 24.4141 115.999 24.082 116.015 23.7695L116.929 25.0234C116.835 25.3438 116.675 25.6875 116.448 26.0547C116.222 26.4219 115.925 26.7734 115.558 27.1094C115.198 27.4375 114.765 27.707 114.257 27.918C113.757 28.1289 113.179 28.2344 112.522 28.2344C111.694 28.2344 110.956 28.0703 110.308 27.7422C109.659 27.4062 109.151 26.957 108.784 26.3945C108.417 25.8242 108.233 25.1797 108.233 24.4609C108.233 23.7891 108.358 23.1953 108.608 22.6797C108.866 22.1562 109.241 21.7188 109.733 21.3672C110.233 21.0156 110.843 20.75 111.562 20.5703C112.28 20.3828 113.101 20.2891 114.022 20.2891H116.237Z" fill="black"/>
<path fill-rule="evenodd" clip-rule="evenodd" d="M32.5935 18.753L35.5131 16.8587L27.6499 0.911279C27.6499 0.911279 27.0026 -0.557876 25.8416 0.234647L24.9625 0.83393C24.9625 0.83393 23.8843 1.37522 24.581 2.76697L32.5935 18.753ZM24.581 10.1124L21.7277 8.02474L22.9304 5.74377C23.594 4.6613 25.0464 6.05112 25.0464 6.05112C26.3486 7.10458 25.6593 8.02474 25.6593 8.02474L24.581 10.1124ZM14.246 22.5998L17.2984 24.9774L24.581 10.1124L21.7277 8.02474L14.246 22.5998ZM14.246 22.5998L17.2984 24.9774L12.6535 30.0709C12.6535 30.0709 12.3217 30.3802 12.4212 29.8389L14.246 22.5998ZM34.5676 22.8898L35.7786 22.0538L37.5078 20.8601C38.1423 27.5978 38.3421 26.9511 38.3421 30.0709C38.3421 30.0709 37.1533 27.741 34.5676 22.8898ZM35.5131 16.8587L32.5935 18.753L34.5676 22.8898L37.5078 20.8601L35.5131 16.8587ZM18.1804 14.9353L11.3098 14.9498C10.5912 16.5865 10.6562 17.4386 11.3098 18.8497L16.1561 18.8787L18.1804 14.9353ZM22.2111 14.9498L30.68 14.9353L32.6535 18.8787L20.2863 18.8787L22.2111 14.9498ZM41.4686 14.9353L34.5648 14.9353L36.5105 18.8594L41.4686 18.8787C42.1928 17.456 42.1617 16.6021 41.4686 14.9353Z" fill="#FB640D"/>
<path d="M30.1589 20.1058C30.1589 23.321 29.1312 26.452 27.2259 29.0419C25.3206 31.6317 22.6374 33.5447 19.5679 34.5017C16.4984 35.4588 13.2034 35.4096 10.1639 34.3616C7.1243 33.3135 4.49929 31.3213 2.67202 28.6758C0.84474 26.0304 -0.0891365 22.8701 0.00670044 19.6563C0.102537 16.4426 1.22307 13.3436 3.20474 10.8117C5.18641 8.27978 7.92546 6.44757 11.0221 5.58247C14.1187 4.71737 17.4108 4.86468 20.4178 6.0029L19.3248 8.89029C16.9335 7.9851 14.3154 7.86795 11.8528 8.55593C9.39014 9.24391 7.21187 10.701 5.63593 12.7145C4.05998 14.728 3.16886 17.1926 3.09265 19.7483C3.01643 22.3041 3.75911 24.8174 5.21227 26.9212C6.66544 29.0251 8.75301 30.6094 11.1703 31.4429C13.5875 32.2764 16.2079 32.3154 18.6489 31.5544C21.09 30.7933 23.2238 29.2719 24.7391 27.2123C26.2543 25.1527 27.0716 22.6627 27.0716 20.1058H30.1589Z" fill="url(#paint0_angular_638_3734)"/>
<defs>
<radialGradient id="paint0_angular_638_3734" cx="0" cy="0" r="1" gradientUnits="userSpaceOnUse" gradientTransform="translate(15.0794 20.1058) rotate(90) scale(15.0794)">
<stop offset="0.0497916" stop-color="#2007B4"/>
<stop offset="0.12166" stop-color="#FB640D"/>
<stop offset="0.215917" stop-color="#2007B4"/>
<stop offset="0.294279" stop-color="#FB640D"/>
<stop offset="0.369767" stop-color="#2007B4"/>
<stop offset="0.454064" stop-color="#FB640D"/>
<stop offset="0.529635" stop-color="#2007B4"/>
<stop offset="0.618552" stop-color="#FB640D"/>
<stop offset="0.758458" stop-color="#2007B4"/>
<stop offset="0.848958" stop-color="#FB640D"/>
<stop offset="0.911458" stop-color="#2007B4"/>
<stop offset="0.980909" stop-color="#FB640D"/>
</radialGradient>
</defs>
</svg>
