<svg width="121" height="38" viewBox="0 0 121 38" fill="none" xmlns="http://www.w3.org/2000/svg">
<path d="M59.3789 12.2109L54.2812 27H51.1992L57.6211 9.9375H59.5898L59.3789 12.2109ZM63.6445 27L58.5352 12.2109L58.3125 9.9375H60.293L66.7383 27H63.6445ZM63.3984 20.6719V23.0039H54.1172V20.6719H63.3984ZM71.2205 16.8984V27H68.3962V14.3203H71.0564L71.2205 16.8984ZM70.7634 20.1914L69.8025 20.1797C69.8025 19.3047 69.9119 18.4961 70.1306 17.7539C70.3494 17.0117 70.6697 16.3672 71.0916 15.8203C71.5134 15.2656 72.0369 14.8398 72.6619 14.543C73.2947 14.2383 74.0252 14.0859 74.8533 14.0859C75.4314 14.0859 75.9587 14.1719 76.4353 14.3438C76.9197 14.5078 77.3377 14.7695 77.6892 15.1289C78.0486 15.4883 78.322 15.9492 78.5095 16.5117C78.7048 17.0742 78.8025 17.7539 78.8025 18.5508V27H75.9783V18.7969C75.9783 18.1797 75.8845 17.6953 75.697 17.3438C75.5173 16.9922 75.2556 16.7422 74.9119 16.5938C74.5759 16.4375 74.1736 16.3594 73.7048 16.3594C73.1736 16.3594 72.7205 16.4609 72.3455 16.6641C71.9783 16.8672 71.6775 17.1445 71.4431 17.4961C71.2087 17.8477 71.0369 18.2539 70.9275 18.7148C70.8181 19.1758 70.7634 19.668 70.7634 20.1914ZM78.6267 19.4414L77.3025 19.7344C77.3025 18.9688 77.408 18.2461 77.6189 17.5664C77.8377 16.8789 78.1541 16.2773 78.5681 15.7617C78.99 15.2383 79.5095 14.8281 80.1267 14.5312C80.7439 14.2344 81.4509 14.0859 82.2478 14.0859C82.8962 14.0859 83.4744 14.1758 83.9822 14.3555C84.4978 14.5273 84.9353 14.8008 85.2947 15.1758C85.6541 15.5508 85.9275 16.0391 86.115 16.6406C86.3025 17.2344 86.3962 17.9531 86.3962 18.7969V27H83.5603V18.7852C83.5603 18.1445 83.4666 17.6484 83.2791 17.2969C83.0994 16.9453 82.8416 16.7031 82.5056 16.5703C82.1697 16.4297 81.7673 16.3594 81.2986 16.3594C80.8611 16.3594 80.4744 16.4414 80.1384 16.6055C79.8103 16.7617 79.533 16.9844 79.3064 17.2734C79.0798 17.5547 78.908 17.8789 78.7908 18.2461C78.6814 18.6133 78.6267 19.0117 78.6267 19.4414ZM92.5659 14.3203V27H89.73V14.3203H92.5659ZM89.5425 10.9922C89.5425 10.5625 89.6831 10.207 89.9644 9.92578C90.2534 9.63672 90.6519 9.49219 91.1597 9.49219C91.6597 9.49219 92.0542 9.63672 92.3433 9.92578C92.6323 10.207 92.7769 10.5625 92.7769 10.9922C92.7769 11.4141 92.6323 11.7656 92.3433 12.0469C92.0542 12.3281 91.6597 12.4688 91.1597 12.4688C90.6519 12.4688 90.2534 12.3281 89.9644 12.0469C89.6831 11.7656 89.5425 11.4141 89.5425 10.9922ZM101.079 24.9844C101.54 24.9844 101.954 24.8945 102.322 24.7148C102.697 24.5273 102.997 24.2695 103.224 23.9414C103.458 23.6133 103.587 23.2344 103.611 22.8047H106.271C106.255 23.625 106.013 24.3711 105.544 25.043C105.075 25.7148 104.454 26.25 103.681 26.6484C102.908 27.0391 102.052 27.2344 101.115 27.2344C100.146 27.2344 99.302 27.0703 98.5833 26.7422C97.8645 26.4062 97.2669 25.9453 96.7903 25.3594C96.3138 24.7734 95.9544 24.0977 95.7122 23.332C95.4778 22.5664 95.3606 21.7461 95.3606 20.8711V20.4609C95.3606 19.5859 95.4778 18.7656 95.7122 18C95.9544 17.2266 96.3138 16.5469 96.7903 15.9609C97.2669 15.375 97.8645 14.918 98.5833 14.5898C99.302 14.2539 100.142 14.0859 101.103 14.0859C102.118 14.0859 103.009 14.2891 103.775 14.6953C104.54 15.0938 105.142 15.6523 105.579 16.3711C106.025 17.082 106.255 17.9102 106.271 18.8555H103.611C103.587 18.3867 103.47 17.9648 103.259 17.5898C103.056 17.207 102.767 16.9023 102.392 16.6758C102.025 16.4492 101.583 16.3359 101.068 16.3359C100.497 16.3359 100.025 16.4531 99.6497 16.6875C99.2747 16.9141 98.9817 17.2266 98.7708 17.625C98.5598 18.0156 98.4075 18.457 98.3138 18.9492C98.2278 19.4336 98.1848 19.9375 98.1848 20.4609V20.8711C98.1848 21.3945 98.2278 21.9023 98.3138 22.3945C98.3997 22.8867 98.5481 23.3281 98.7591 23.7188C98.9778 24.1016 99.2747 24.4102 99.6497 24.6445C100.025 24.8711 100.501 24.9844 101.079 24.9844ZM115.827 24.457V18.4102C115.827 17.957 115.745 17.5664 115.581 17.2383C115.417 16.9102 115.167 16.6562 114.831 16.4766C114.503 16.2969 114.089 16.207 113.589 16.207C113.128 16.207 112.73 16.2852 112.394 16.4414C112.058 16.5977 111.796 16.8086 111.608 17.0742C111.421 17.3398 111.327 17.6406 111.327 17.9766H108.515C108.515 17.4766 108.636 16.9922 108.878 16.5234C109.12 16.0547 109.472 15.6367 109.933 15.2695C110.394 14.9023 110.944 14.6133 111.585 14.4023C112.226 14.1914 112.944 14.0859 113.741 14.0859C114.694 14.0859 115.538 14.2461 116.272 14.5664C117.015 14.8867 117.597 15.3711 118.019 16.0195C118.448 16.6602 118.663 17.4648 118.663 18.4336V24.0703C118.663 24.6484 118.702 25.168 118.78 25.6289C118.866 26.082 118.987 26.4766 119.144 26.8125V27H116.249C116.116 26.6953 116.011 26.3086 115.933 25.8398C115.862 25.3633 115.827 24.9023 115.827 24.457ZM116.237 19.2891L116.261 21.0352H114.233C113.71 21.0352 113.249 21.0859 112.851 21.1875C112.452 21.2812 112.12 21.4219 111.855 21.6094C111.589 21.7969 111.39 22.0234 111.257 22.2891C111.124 22.5547 111.058 22.8555 111.058 23.1914C111.058 23.5273 111.136 23.8359 111.292 24.1172C111.448 24.3906 111.675 24.6055 111.972 24.7617C112.276 24.918 112.644 24.9961 113.073 24.9961C113.651 24.9961 114.155 24.8789 114.585 24.6445C115.022 24.4023 115.366 24.1094 115.616 23.7656C115.866 23.4141 115.999 23.082 116.015 22.7695L116.929 24.0234C116.835 24.3438 116.675 24.6875 116.448 25.0547C116.222 25.4219 115.925 25.7734 115.558 26.1094C115.198 26.4375 114.765 26.707 114.257 26.918C113.757 27.1289 113.179 27.2344 112.522 27.2344C111.694 27.2344 110.956 27.0703 110.308 26.7422C109.659 26.4062 109.151 25.957 108.784 25.3945C108.417 24.8242 108.233 24.1797 108.233 23.4609C108.233 22.7891 108.358 22.1953 108.608 21.6797C108.866 21.1562 109.241 20.7188 109.733 20.3672C110.233 20.0156 110.843 19.75 111.562 19.5703C112.28 19.3828 113.101 19.2891 114.022 19.2891H116.237Z" fill="white"/>
<path fill-rule="evenodd" clip-rule="evenodd" d="M32.5935 20.753L35.5131 18.8587L27.6499 2.91128C27.6499 2.91128 27.0026 1.44212 25.8416 2.23465L24.9625 2.83393C24.9625 2.83393 23.8843 3.37522 24.581 4.76697L32.5935 20.753ZM24.581 12.1124L21.7277 10.0247L22.9304 7.74377C23.594 6.6613 25.0464 8.05112 25.0464 8.05112C26.3486 9.10458 25.6593 10.0247 25.6593 10.0247L24.581 12.1124ZM14.246 24.5998L17.2984 26.9774L24.581 12.1124L21.7277 10.0247L14.246 24.5998ZM14.246 24.5998L17.2984 26.9774L12.6535 32.0709C12.6535 32.0709 12.3217 32.3802 12.4212 31.8389L14.246 24.5998ZM34.5676 24.8898L35.7786 24.0538L37.5078 22.8601C38.1423 29.5978 38.3421 28.9511 38.3421 32.0709C38.3421 32.0709 37.1533 29.741 34.5676 24.8898ZM35.5131 18.8587L32.5935 20.753L34.5676 24.8898L37.5078 22.8601L35.5131 18.8587ZM18.1804 16.9353L11.3098 16.9498C10.5912 18.5865 10.6562 19.4386 11.3098 20.8497L16.1561 20.8787L18.1804 16.9353ZM22.2111 16.9498L30.68 16.9353L32.6535 20.8787L20.2863 20.8787L22.2111 16.9498ZM41.4686 16.9353L34.5648 16.9353L36.5105 20.8594L41.4686 20.8787C42.1928 19.456 42.1617 18.6021 41.4686 16.9353Z" fill="#FB640D"/>
<path d="M30.1589 22.1058C30.1589 25.321 29.1312 28.452 27.2259 31.0419C25.3206 33.6317 22.6374 35.5447 19.5679 36.5017C16.4984 37.4588 13.2034 37.4096 10.1639 36.3616C7.1243 35.3135 4.49929 33.3213 2.67202 30.6758C0.84474 28.0304 -0.0891365 24.8701 0.00670044 21.6563C0.102537 18.4426 1.22307 15.3436 3.20474 12.8117C5.18641 10.2798 7.92546 8.44757 11.0221 7.58247C14.1187 6.71737 17.4108 6.86468 20.4178 8.0029L19.3248 10.8903C16.9335 9.9851 14.3154 9.86795 11.8528 10.5559C9.39014 11.2439 7.21187 12.701 5.63593 14.7145C4.05998 16.728 3.16886 19.1926 3.09265 21.7483C3.01643 24.3041 3.75911 26.8174 5.21227 28.9212C6.66544 31.0251 8.75301 32.6094 11.1703 33.4429C13.5875 34.2764 16.2079 34.3154 18.6489 33.5544C21.09 32.7933 23.2238 31.2719 24.7391 29.2123C26.2543 27.1527 27.0716 24.6627 27.0716 22.1058H30.1589Z" fill="url(#paint0_angular_617_3821)"/>
<defs>
<radialGradient id="paint0_angular_617_3821" cx="0" cy="0" r="1" gradientUnits="userSpaceOnUse" gradientTransform="translate(15.0794 22.1058) rotate(90) scale(15.0794)">
<stop offset="0.0497916" stop-color="#2007B4"/>
<stop offset="0.12166" stop-color="#FB640D"/>
<stop offset="0.215917" stop-color="#2007B4"/>
<stop offset="0.294279" stop-color="#FB640D"/>
<stop offset="0.369767" stop-color="#2007B4"/>
<stop offset="0.454064" stop-color="#FB640D"/>
<stop offset="0.529635" stop-color="#2007B4"/>
<stop offset="0.618552" stop-color="#FB640D"/>
<stop offset="0.758458" stop-color="#2007B4"/>
<stop offset="0.848958" stop-color="#FB640D"/>
<stop offset="0.911458" stop-color="#2007B4"/>
<stop offset="0.980909" stop-color="#FB640D"/>
</radialGradient>
</defs>
</svg>
