<svg width="30" height="30" viewBox="0 0 30 30" fill="none" xmlns="http://www.w3.org/2000/svg">
<path d="M3.75 7.03125C3.75 6.65829 3.89816 6.3006 4.16188 6.03688C4.4256 5.77316 4.78329 5.625 5.15625 5.625H24.8438C25.2167 5.625 25.5744 5.77316 25.8381 6.03688C26.1018 6.3006 26.25 6.65829 26.25 7.03125C26.25 7.40421 26.1018 7.7619 25.8381 8.02562C25.5744 8.28934 25.2167 8.4375 24.8438 8.4375H5.15625C4.78329 8.4375 4.4256 8.28934 4.16188 8.02562C3.89816 7.7619 3.75 7.40421 3.75 7.03125ZM3.75 14.5312C3.75 14.1583 3.89816 13.8006 4.16188 13.5369C4.4256 13.2732 4.78329 13.125 5.15625 13.125H24.8438C25.2167 13.125 25.5744 13.2732 25.8381 13.5369C26.1018 13.8006 26.25 14.1583 26.25 14.5312C26.25 14.9042 26.1018 15.2619 25.8381 15.5256C25.5744 15.7893 25.2167 15.9375 24.8438 15.9375H5.15625C4.78329 15.9375 4.4256 15.7893 4.16188 15.5256C3.89816 15.2619 3.75 14.9042 3.75 14.5312ZM3.75 22.0312C3.75 21.6583 3.89816 21.3006 4.16188 21.0369C4.4256 20.7732 4.78329 20.625 5.15625 20.625H24.8438C25.2167 20.625 25.5744 20.7732 25.8381 21.0369C26.1018 21.3006 26.25 21.6583 26.25 22.0312C26.25 22.4042 26.1018 22.7619 25.8381 23.0256C25.5744 23.2893 25.2167 23.4375 24.8438 23.4375H5.15625C4.78329 23.4375 4.4256 23.2893 4.16188 23.0256C3.89816 22.7619 3.75 22.4042 3.75 22.0312Z" fill="#111111"/>
</svg>
