<svg width="578" height="381" viewBox="0 0 578 381" fill="none" xmlns="http://www.w3.org/2000/svg">
<g clip-path="url(#clip0_192_1599)">
<path d="M207.328 219.329C227.137 184.859 264.921 158.391 304.919 160.94C275.415 192.68 258.211 233.721 256.35 276.801C255.693 293.418 256.712 311.968 245.559 324.41C238.62 332.152 228.013 335.902 217.584 336.688C207.154 337.475 196.727 335.611 186.437 333.754L183.941 334.512C182.991 294.872 187.52 253.8 207.328 219.329Z" fill="#F0F0F0"/>
<path d="M304.979 161.77C275.401 175.857 250.181 199.382 234.698 228.073C231.351 234.276 228.501 240.856 227.258 247.814C226.014 254.775 226.883 261.401 229.286 268.012C231.484 274.056 234.439 279.987 235.112 286.454C235.822 293.271 233.287 299.645 228.723 304.704C223.139 310.893 215.64 314.728 208.175 318.227C199.887 322.111 191.215 326.016 185.344 333.266C184.633 334.144 183.297 333.001 184.007 332.124C194.221 319.51 211.705 317.139 223.829 306.979C229.486 302.238 233.733 295.781 233.465 288.216C233.231 281.6 230.189 275.482 227.911 269.381C225.519 262.975 224.326 256.535 225.184 249.705C226.061 242.718 228.657 236.014 231.829 229.753C238.984 215.635 248.774 202.673 259.99 191.468C272.88 178.588 287.903 167.985 304.407 160.117C305.429 159.63 305.994 161.287 304.979 161.77Z" fill="white"/>
<path d="M239.233 218.484C234.699 215.204 231.49 210.437 230.181 205.033C228.872 199.629 229.548 193.94 232.087 188.983C232.604 187.982 234.201 188.73 233.683 189.733C231.31 194.344 230.682 199.643 231.911 204.673C233.14 209.703 236.147 214.132 240.387 217.161C241.308 217.821 240.148 219.14 239.233 218.484Z" fill="white"/>
<path d="M227.765 265.093C239.127 263.45 249.446 257.632 256.664 248.797C257.378 247.921 258.715 249.064 258.001 249.939C250.472 259.119 239.722 265.152 227.894 266.836C226.767 266.995 226.643 265.252 227.765 265.093Z" fill="white"/>
<path d="M273.753 180.739C275.24 182.37 277.113 183.609 279.204 184.347C281.295 185.085 283.539 185.297 285.734 184.965C286.858 184.791 286.981 186.535 285.863 186.708C283.437 187.064 280.959 186.826 278.647 186.016C276.334 185.206 274.258 183.849 272.598 182.062C272.428 181.906 272.323 181.692 272.306 181.463C272.289 181.234 272.361 181.008 272.507 180.829C272.661 180.655 272.878 180.547 273.111 180.53C273.344 180.513 273.575 180.588 273.753 180.739Z" fill="white"/>
<path d="M384.503 269.683C383.804 269.811 383.105 269.939 382.399 270.081C373.007 271.853 363.776 274.378 354.798 277.629C354.099 277.869 353.396 278.123 352.706 278.383C331.158 286.444 311.311 298.393 294.173 313.621C287.359 319.687 281.021 326.257 275.215 333.275C267.197 342.966 259.282 354.105 248.804 360.425C247.718 361.096 246.592 361.7 245.431 362.234L185.07 337.466C184.961 337.341 184.846 337.23 184.737 337.105L182.281 336.226C182.555 335.843 182.848 335.452 183.121 335.069C183.279 334.847 183.451 334.63 183.609 334.407C183.718 334.26 183.829 334.114 183.919 333.975C183.955 333.927 183.992 333.878 184.023 333.842C184.113 333.704 184.212 333.585 184.297 333.46C185.925 331.27 187.572 329.087 189.237 326.912C189.243 326.899 189.243 326.899 189.262 326.891C201.992 310.35 216.23 294.716 232.414 281.717C232.901 281.326 233.393 280.921 233.908 280.541C241.236 274.722 249.032 269.504 257.219 264.941C261.71 262.457 266.326 260.199 271.047 258.177C283.258 252.974 296.22 249.704 309.458 248.486C335.849 246.061 362.729 252.014 382.969 268.415C383.487 268.835 383.992 269.249 384.503 269.683Z" fill="#F0F0F0"/>
<path d="M384.049 270.385C351.86 264.015 317.405 267.777 287.582 281.464C281.135 284.423 274.854 287.98 269.627 292.795C264.398 297.612 261.059 303.42 258.954 310.13C257.03 316.264 255.78 322.76 252.382 328.325C248.8 334.19 242.897 337.77 236.174 339.09C227.949 340.706 219.627 339.302 211.538 337.649C202.556 335.814 193.255 333.767 184.156 336.059C183.053 336.336 182.682 334.628 183.783 334.35C199.615 330.363 215.018 338.883 230.882 337.992C238.284 337.576 245.605 334.95 249.995 328.75C253.834 323.329 255.129 316.632 257.023 310.404C259.012 303.864 261.979 298.011 266.821 293.069C271.773 288.013 277.926 284.206 284.269 281.097C298.574 274.085 314.28 269.567 330.054 267.301C348.185 264.695 366.633 265.176 384.599 268.724C385.711 268.944 385.154 270.604 384.049 270.385Z" fill="white"/>
<path d="M297.038 276.51C295.414 271.19 295.754 265.472 297.998 260.378C300.242 255.283 304.243 251.144 309.287 248.698C310.309 248.207 311.129 249.756 310.105 250.248C305.404 252.516 301.677 256.373 299.598 261.121C297.518 265.869 297.223 271.196 298.765 276.141C299.099 277.216 297.37 277.578 297.038 276.51Z" fill="white"/>
<path d="M259.517 306.893C269.588 312.349 281.369 313.85 292.509 311.095C293.612 310.821 293.984 312.529 292.881 312.803C281.283 315.648 269.027 314.062 258.559 308.362C257.562 307.818 258.525 306.352 259.517 306.893Z" fill="white"/>
<path d="M347.574 266.932C347.769 269.12 348.51 271.225 349.731 273.06C350.951 274.894 352.614 276.4 354.568 277.442C355.572 277.974 354.608 279.439 353.611 278.911C351.457 277.75 349.623 276.085 348.27 274.061C346.916 272.037 346.084 269.716 345.847 267.3C345.805 267.075 345.852 266.841 345.978 266.649C346.103 266.456 346.299 266.317 346.524 266.262C346.753 266.214 346.991 266.258 347.188 266.383C347.385 266.509 347.523 266.706 347.574 266.932Z" fill="white"/>
<path d="M269.52 310.546C261.067 270.111 250.5 256.63 250.5 256.63L246.463 253.534L241.609 249.803L241.632 249.324L240.481 248.936L240.21 248.729L239.767 248.392L239.696 248.468L239.545 248.622L217.578 241.235L189.709 231.87L176.804 215.276C174.702 212.573 171.996 210.389 168.898 208.894C165.8 207.399 162.394 206.634 158.947 206.66L117.732 206.961C112.16 207.002 106.804 209.104 102.718 212.853L75.6279 237.711L33.4164 257.655L33.3452 257.584L32.9019 257.898L26.3798 260.983L26.649 262.369L22.6122 265.25C22.6122 265.25 12.0455 277.794 3.59212 315.418C1.44168 324.992 0.383146 345.528 0.0010737 370.834C-0.0181177 372.114 0.220135 373.385 0.701973 374.573C1.18381 375.762 1.89963 376.843 2.80779 377.755C3.71596 378.667 4.79836 379.392 5.99206 379.887C7.18576 380.381 8.46694 380.636 9.76111 380.636H235.221L263.361 380.636C264.655 380.636 265.935 380.381 267.128 379.887C268.321 379.393 269.403 378.669 270.311 377.758C271.219 376.847 271.935 375.767 272.417 374.58C272.9 373.393 273.139 372.123 273.121 370.844C272.748 343.307 271.69 320.928 269.52 310.546Z" fill="#1F1D42"/>
<path d="M298.447 35.8994C289.675 35.8994 281.263 39.3466 275.06 45.4826C268.858 51.6186 265.373 59.9408 265.373 68.6184C265.373 77.296 268.858 85.6182 275.06 91.7541C281.263 97.8901 289.675 101.337 298.447 101.337H544.925C553.697 101.337 562.11 97.8901 568.312 91.7541C574.515 85.6182 577.999 77.296 577.999 68.6184C577.999 59.9408 574.515 51.6186 568.312 45.4826C562.11 39.3466 553.697 35.8994 544.925 35.8994H298.447Z" fill="#E5E5E5"/>
<path d="M298.448 42.5205C291.451 42.5205 284.741 45.27 279.794 50.1642C274.847 55.0584 272.067 61.6963 272.067 68.6178C272.067 75.5392 274.847 82.1771 279.794 87.0713C284.741 91.9655 291.451 94.715 298.448 94.715H544.926C551.923 94.715 558.633 91.9655 563.58 87.0713C568.527 82.1771 571.307 75.5392 571.307 68.6178C571.307 61.6963 568.527 55.0584 563.58 50.1642C558.633 45.27 551.923 42.5205 544.926 42.5205H298.448Z" fill="white"/>
<path d="M144.812 191.342C174.633 191.342 198.808 167.426 198.808 137.925C198.808 108.424 174.633 84.5088 144.812 84.5088C114.991 84.5088 90.8159 108.424 90.8159 137.925C90.8159 167.426 114.991 191.342 144.812 191.342Z" fill="#FFB9B9"/>
<path d="M130.999 188.726C130.768 188.224 130.538 187.719 130.309 187.213C130.397 187.216 130.485 187.229 130.573 187.231L130.999 188.726Z" fill="#2F2E41"/>
<path d="M89.315 86.9379C92.046 84.7827 95.2378 82.7997 98.7295 82.9112C102.221 83.0225 105.762 86.1422 105.038 89.5233C111.452 78.2897 121.66 69.6498 133.871 65.1201C146.082 60.5904 159.516 60.4603 171.814 64.7528C180.492 67.7816 189.002 73.8411 190.996 82.7285C191.508 85.0099 191.617 87.5115 193.057 89.3641C194.873 91.6998 198.347 92.2282 201.207 91.4065C201.235 91.3983 201.264 91.39 201.292 91.3816C201.776 91.2183 202.297 91.2023 202.79 91.3355C203.282 91.4687 203.723 91.7451 204.055 92.1288C204.387 92.5125 204.595 92.986 204.652 93.4879C204.709 93.9899 204.613 94.4972 204.375 94.9443L201.92 99.4746C205.015 100.157 208.231 100.089 211.294 99.2774C211.803 99.1454 212.341 99.1723 212.833 99.3545C213.326 99.5368 213.75 99.8653 214.046 100.295C214.343 100.725 214.498 101.235 214.49 101.755C214.481 102.276 214.311 102.781 214.001 103.202C205.905 114.198 192.378 121.3 178.574 121.216C168.763 121.157 158.852 117.812 149.304 120.044C145.61 120.907 142.158 122.578 139.202 124.933C136.246 127.288 133.861 130.268 132.221 133.654C130.581 137.041 129.728 140.747 129.725 144.502C129.721 148.257 130.568 151.964 132.202 155.353C129.269 152.179 123.599 152.931 120.599 156.043C117.598 159.155 116.821 163.799 117.124 168.09C117.586 174.651 120.185 180.834 122.924 186.852C99.9552 186.136 78.2301 170.197 70.9174 148.638C63.5741 126.989 71.2701 101.178 89.315 86.9379Z" fill="#1F1D42"/>
<path opacity="0.2" d="M53.1465 298.339L68.2911 379.854L77.3782 380.636L53.1465 298.339Z" fill="black"/>
<path opacity="0.2" d="M219.967 292.191L204.822 379.794L195.735 380.636L219.967 292.191Z" fill="black"/>
<path d="M102.232 59.5043C99.3281 60.7038 96.2982 59.3893 95.0275 56.3788C93.7373 53.3223 94.9423 50.2195 97.8926 49.0008C100.843 47.782 103.819 49.0997 105.13 52.2056C106.421 55.2648 105.23 58.2661 102.232 59.5043ZM96.6695 42.9846L94.3607 43.9384C93.7839 44.1738 93.1388 44.1865 92.553 43.9739C91.9672 43.7614 91.4834 43.3391 91.1973 42.7905L91.0831 42.5696C88.5988 38.1373 88.3144 32.7506 90.2421 26.5674C92.028 21.0208 92.7697 17.1198 91.278 13.5858C89.5533 9.49981 85.8705 8.21986 81.1741 10.074C79.3526 10.8264 78.773 10.8144 77.3395 12.2212C77.0277 12.5309 76.6561 12.7753 76.2467 12.9399C75.8374 13.1044 75.3987 13.1858 74.9569 13.179C74.5298 13.174 74.1081 13.084 73.7169 12.9143C73.3257 12.7447 72.9731 12.4988 72.68 12.1914C72.1154 11.599 71.7991 10.8167 71.795 10.0025C71.7908 9.18831 72.0991 8.40289 72.6576 7.80487C75.067 5.3098 77.973 3.33588 81.1923 2.00768C91.2829 -2.1606 96.3625 3.99327 98.6871 9.5004C100.961 14.887 99.6817 19.8849 97.6267 26.3576C95.9046 31.7361 96.0049 35.7214 97.9612 39.6841C98.1024 39.9837 98.181 40.3084 98.1922 40.6388C98.2034 40.9692 98.147 41.2984 98.0263 41.6067C97.9057 41.9149 97.7233 42.1959 97.4902 42.4327C97.257 42.6695 96.9778 42.8572 96.6695 42.9846Z" fill="#6C63FF"/>
<path d="M352.891 84.2223H303.851C303.696 84.2233 303.541 84.1939 303.397 84.1356C303.253 84.0773 303.121 83.9914 303.011 83.8828C302.9 83.7742 302.813 83.645 302.753 83.5027C302.693 83.3604 302.662 83.2078 302.662 83.0536C302.662 82.8995 302.693 82.7469 302.753 82.6046C302.813 82.4623 302.9 82.3331 303.011 82.2245C303.121 82.1159 303.253 82.03 303.397 81.9717C303.541 81.9134 303.696 81.884 303.851 81.885H352.891C353.203 81.8871 353.502 82.0112 353.721 82.2301C353.941 82.449 354.065 82.7451 354.065 83.0536C354.065 83.3622 353.941 83.6583 353.721 83.8772C353.502 84.0961 353.203 84.2202 352.891 84.2223Z" fill="#6C63FF"/>
<path d="M415.102 84.6114H366.062C365.906 84.6125 365.752 84.583 365.607 84.5248C365.463 84.4665 365.332 84.3806 365.221 84.272C365.111 84.1634 365.023 84.0342 364.963 83.8919C364.903 83.7496 364.873 83.597 364.873 83.4428C364.873 83.2887 364.903 83.1361 364.963 82.9938C365.023 82.8515 365.111 82.7223 365.221 82.6136C365.332 82.505 365.463 82.4191 365.607 82.3609C365.752 82.3026 365.906 82.2731 366.062 82.2742H415.102C415.258 82.2731 415.412 82.3026 415.556 82.3609C415.701 82.4191 415.832 82.505 415.942 82.6136C416.053 82.7223 416.141 82.8515 416.201 82.9938C416.26 83.1361 416.291 83.2887 416.291 83.4428C416.291 83.597 416.26 83.7496 416.201 83.8919C416.141 84.0342 416.053 84.1634 415.942 84.272C415.832 84.3806 415.701 84.4665 415.556 84.5248C415.412 84.583 415.258 84.6125 415.102 84.6114Z" fill="#6C63FF"/>
<path d="M477.311 85.0016H428.271C427.959 84.9995 427.661 84.8754 427.441 84.6565C427.221 84.4376 427.098 84.1415 427.098 83.8329C427.098 83.5244 427.221 83.2283 427.441 83.0094C427.661 82.7905 427.959 82.6664 428.271 82.6643H477.311C477.467 82.6633 477.622 82.6927 477.766 82.751C477.91 82.8093 478.041 82.8952 478.152 83.0038C478.262 83.1124 478.35 83.2416 478.41 83.3839C478.47 83.5262 478.501 83.6788 478.501 83.8329C478.501 83.9871 478.47 84.1397 478.41 84.282C478.35 84.4243 478.262 84.5535 478.152 84.6621C478.041 84.7707 477.91 84.8566 477.766 84.9149C477.622 84.9732 477.467 85.0026 477.311 85.0016Z" fill="#6C63FF"/>
<path d="M539.522 85.3909H490.482C490.17 85.3888 489.872 85.2648 489.652 85.0459C489.432 84.8269 489.309 84.5309 489.309 84.2223C489.309 83.9138 489.432 83.6177 489.652 83.3988C489.872 83.1798 490.17 83.0558 490.482 83.0537H539.522C539.834 83.0558 540.132 83.1798 540.352 83.3988C540.572 83.6177 540.695 83.9138 540.695 84.2223C540.695 84.5309 540.572 84.8269 540.352 85.0459C540.132 85.2648 539.834 85.3888 539.522 85.3909Z" fill="#6C63FF"/>
<path d="M328.264 73.4686C333.298 73.4686 337.379 69.4317 337.379 64.452C337.379 59.4722 333.298 55.4353 328.264 55.4353C323.231 55.4353 319.15 59.4722 319.15 64.452C319.15 69.4317 323.231 73.4686 328.264 73.4686Z" fill="#6C63FF"/>
<path d="M390.849 73.4684C395.883 73.4684 399.964 69.4315 399.964 64.4517C399.964 59.472 395.883 55.4351 390.849 55.4351C385.816 55.4351 381.735 59.472 381.735 64.4517C381.735 69.4315 385.816 73.4684 390.849 73.4684Z" fill="#6C63FF"/>
<path d="M453.435 73.4679C458.469 73.4679 462.55 69.431 462.55 64.4512C462.55 59.4715 458.469 55.4346 453.435 55.4346C448.401 55.4346 444.321 59.4715 444.321 64.4512C444.321 69.431 448.401 73.4679 453.435 73.4679Z" fill="#6C63FF"/>
<path d="M516.022 73.4682C521.055 73.4682 525.136 69.4313 525.136 64.4515C525.136 59.4717 521.055 55.4348 516.022 55.4348C510.988 55.4348 506.907 59.4717 506.907 64.4515C506.907 69.4313 510.988 73.4682 516.022 73.4682Z" fill="#6C63FF"/>
</g>
<defs>
<clipPath id="clip0_192_1599">
<rect width="578" height="380" fill="white" transform="translate(0 0.636963)"/>
</clipPath>
</defs>
</svg>
