<svg width="176" height="65" viewBox="0 0 176 65" fill="none" xmlns="http://www.w3.org/2000/svg">
<mask id="mask0_22_755" style="mask-type:luminance" maskUnits="userSpaceOnUse" x="12" y="16" width="31" height="32">
<path d="M42.9125 16.0813H12.3269V47.9559H42.9125V16.0813Z" fill="white"/>
</mask>
<g mask="url(#mask0_22_755)">
<path d="M41.5224 16.0811V24.8902H24.2374C24.0288 24.8882 23.8217 24.9214 23.6282 24.9881C23.4347 25.0546 23.2585 25.1533 23.1099 25.2782C22.9891 25.3802 22.8904 25.4997 22.8186 25.6312C22.9793 23.3997 23.971 21.2703 25.6494 19.5526C27.3278 17.8349 29.6052 16.6188 32.1503 16.0811H41.5224Z" fill="url(#paint0_linear_22_755)"/>
<path d="M32.465 38.2979C32.3224 40.5405 31.341 42.6853 29.6647 44.4178C27.9884 46.1502 25.7053 47.3794 23.1501 47.925H14.2081V39.1177H30.997C31.2106 39.1201 31.4226 39.0856 31.6202 39.0163C31.8091 38.9506 31.9806 38.8531 32.1245 38.7297C32.2691 38.6055 32.3847 38.4589 32.465 38.2979Z" fill="url(#paint1_linear_22_755)"/>
<path d="M42.9126 37.7685C42.92 39.1271 42.6018 40.4726 41.9775 41.7225C41.8505 41.9742 41.711 42.2221 41.5597 42.4636C41.5554 42.4737 41.5511 42.4774 41.5511 42.4843C41.5497 42.4895 41.5468 42.4944 41.543 42.4986C40.2587 44.5686 38.1786 46.199 35.6516 47.1163C34.1823 47.6564 32.5978 47.9313 30.9979 47.9237H23.1548L23.245 47.903C25.779 47.3437 28.0384 46.1114 29.6962 44.3843C31.354 42.6572 32.324 40.5251 32.4659 38.2966V38.2929C32.6158 37.9603 32.6187 37.5926 32.474 37.2583C32.4702 37.2514 32.4659 37.2408 32.4615 37.2339C32.3836 37.0732 32.2693 36.9271 32.1254 36.8039C31.9779 36.678 31.8018 36.5789 31.608 36.5127C31.4142 36.4466 31.2066 36.4147 30.9979 36.4191H24.2374C23.9012 36.4191 23.565 36.409 23.2326 36.3809C23.2207 36.3809 23.2083 36.3772 23.1921 36.3772C21.9502 36.2933 20.7334 36.0336 19.5918 35.6085C16.7512 34.5658 14.4892 32.6321 13.274 30.2073C13.1139 29.8949 12.9743 29.5752 12.8556 29.2497C12.5009 28.275 12.3226 27.2599 12.327 26.2394C12.3199 24.8778 12.6423 23.5295 13.274 22.2789C14.4963 19.8615 16.7566 17.9342 19.5918 16.892C20.4193 16.5831 21.2883 16.3624 22.1792 16.2349C22.2121 16.2275 22.2365 16.2243 22.2527 16.2206C22.2608 16.2188 22.2692 16.2177 22.2775 16.2174C22.9252 16.125 23.5807 16.0788 24.2374 16.0791H32.1502C29.6051 16.6168 27.3277 17.833 25.6494 19.5506C23.971 21.2683 22.9793 23.3978 22.8186 25.6293C22.8013 25.6552 22.7862 25.6821 22.7737 25.7099C22.6927 25.8772 22.6523 26.0567 22.6548 26.2376C22.6525 26.427 22.6941 26.615 22.7775 26.7906C22.7862 26.8101 22.7972 26.8288 22.8105 26.8464C22.8811 26.9864 22.9828 27.1134 23.1099 27.2206C23.2579 27.3462 23.4339 27.4452 23.6276 27.5119C23.8212 27.5786 24.0286 27.6114 24.2374 27.6086H30.9979C32.5944 27.6014 34.1759 27.8714 35.6461 28.4022C38.5047 29.4268 40.7785 31.3656 41.9802 33.8029C42.139 34.1188 42.2774 34.4418 42.3948 34.7707C42.742 35.7423 42.9165 36.7528 42.9126 37.7685Z" fill="url(#paint2_linear_22_755)"/>
<g style="mix-blend-mode:multiply" opacity="0.16">
<path d="M32.4753 38.2981C32.3328 40.5408 31.3514 42.6855 29.6751 44.418C27.9988 46.1505 25.7157 47.3796 23.1605 47.9252H20.6677C22.7596 47.0859 24.6062 45.8602 26.0739 44.3372C27.5416 42.8142 28.5935 41.0318 29.1535 39.1193H31.0063C31.2199 39.1217 31.4319 39.0872 31.6295 39.0179C31.8185 38.9522 31.99 38.8548 32.1338 38.7313C32.279 38.6068 32.3949 38.4597 32.4753 38.2981Z" fill="black"/>
</g>
<g style="mix-blend-mode:multiply" opacity="0.16">
<path d="M34.3976 16.0811C32.0891 17.5456 27.4031 20.926 26.2221 24.8902H24.2379C24.0293 24.8882 23.8222 24.9214 23.6286 24.9881C23.4351 25.0546 23.259 25.1533 23.1104 25.2782C22.9896 25.3802 22.8909 25.4997 22.8191 25.6312C22.9798 23.3997 23.9715 21.2703 25.6499 19.5526C27.3283 17.8349 29.6057 16.6188 32.1507 16.0811H34.3976Z" fill="black"/>
</g>
<g style="mix-blend-mode:multiply" opacity="0.25">
<path d="M41.5267 18.7168V24.8922H27.0912C28.2922 24.7908 29.4975 24.7212 30.699 24.6719C31.9005 24.6226 33.1058 24.5797 34.3068 24.5636C35.5121 24.5322 36.7136 24.5359 37.9189 24.5253C38.9999 24.5359 40.0712 24.5359 41.15 24.5567C41.1619 24.1548 41.1706 23.7525 41.1905 23.3474C41.2111 22.8331 41.2316 22.3193 41.2689 21.8054C41.3284 20.7759 41.4078 19.7445 41.5267 18.7168Z" fill="black"/>
</g>
<g style="mix-blend-mode:screen" opacity="0.7">
<path d="M42.9161 37.769C42.9235 39.1275 42.6053 40.473 41.981 41.7231C41.854 41.9747 41.7145 42.2226 41.5632 42.4641C41.6043 42.3696 41.7394 42.0686 41.9415 41.6073C42.2547 40.8229 42.4596 40.01 42.5523 39.1852C42.6107 38.6388 42.6232 38.0896 42.5896 37.5417C42.5485 36.9359 42.4498 36.3339 42.2945 35.7417C42.2141 35.4354 42.1141 35.1331 41.9951 34.8361C41.8556 34.5288 41.7162 34.2172 41.5767 33.9061C41.2638 33.2944 40.8792 32.7113 40.4287 32.1655C39.9899 31.6125 39.4825 31.1014 38.9153 30.641C38.369 30.1942 37.7762 29.7907 37.1441 29.4354C36.5446 29.1035 35.9153 28.8124 35.2621 28.5649C34.6737 28.349 34.0665 28.1725 33.446 28.0367C32.5015 27.837 31.5358 27.7188 30.5636 27.6838C29.8501 27.6377 29.4442 27.6105 29.4442 27.6105H30.9981C32.5947 27.6032 34.1762 27.8732 35.6464 28.4041C38.5049 29.4287 40.7788 31.3675 41.9805 33.8047C42.1393 34.1206 42.2776 34.4437 42.395 34.7725C42.7432 35.7435 42.9188 36.7535 42.9161 37.769Z" fill="black"/>
</g>
<g style="mix-blend-mode:multiply" opacity="0.25">
<path d="M21.8587 47.9234H14.2085V41.2642C14.3025 41.8199 14.3598 42.3702 14.4214 42.9283C14.4706 43.4841 14.516 44.0399 14.5447 44.5919C14.5858 45.1477 14.5939 45.704 14.6182 46.2598L14.6349 47.5598C15.1306 47.5667 15.6268 47.5667 16.1229 47.5773C16.7585 47.5985 17.3942 47.6054 18.0336 47.6405C19.3086 47.693 20.5836 47.7732 21.8587 47.9234Z" fill="black"/>
</g>
<g style="mix-blend-mode:screen" opacity="0.7">
<path d="M23.195 36.3777C21.9531 36.2938 20.7364 36.034 19.5947 35.609C16.7541 34.5663 14.4922 32.6326 13.2769 30.2078C13.1169 29.8954 12.9772 29.5757 12.8586 29.2502C12.5038 28.2755 12.3256 27.2604 12.3299 26.2399C12.3228 24.8782 12.6452 23.53 13.2769 22.2794C14.4992 19.862 16.7596 17.9347 19.5947 16.8925C20.4222 16.5836 21.2912 16.3629 22.1821 16.2354C21.7352 16.327 21.2944 16.439 20.8617 16.5708C17.9257 17.4649 15.4967 19.275 14.0644 21.636C13.1172 23.1864 12.6713 24.9239 12.7726 26.6699C12.8044 27.5472 12.9825 28.4162 13.3017 29.2506C13.3958 29.4636 13.4861 29.6769 13.5763 29.8866L13.6417 30.0438L13.6585 30.0825C13.6623 30.089 13.665 30.096 13.6666 30.1032L13.7077 30.1802L13.8633 30.4774C14.0704 30.8622 14.3073 31.2348 14.5725 31.5927C15.0752 32.2741 15.6682 32.9039 16.3399 33.4697C16.9495 33.9761 17.6169 34.4294 18.3321 34.8228C18.9427 35.1531 19.5831 35.4417 20.2471 35.6859C20.7653 35.8738 21.2998 36.027 21.8459 36.144C22.2907 36.2412 22.741 36.3192 23.195 36.3777Z" fill="black"/>
</g>
<g style="mix-blend-mode:screen" opacity="0.7">
<path d="M32.1539 16.0811C29.6088 16.6188 27.3314 17.8349 25.653 19.5526C23.9746 21.2703 22.9829 23.3997 22.8222 25.6312C22.8049 25.6571 22.7899 25.6841 22.7773 25.7119L22.8103 25.6243C22.7979 25.3478 22.7979 25.0685 22.7979 24.7888C22.8222 24.5095 22.859 24.2298 22.8919 23.9464C22.946 23.6698 23.0189 23.3933 23.0806 23.1168C23.1627 22.8403 23.2735 22.5749 23.3676 22.2988C23.4757 22.0297 23.6097 21.7707 23.7405 21.5052C23.88 21.2467 24.0443 20.9983 24.1918 20.743C24.3637 20.4951 24.5523 20.2609 24.7323 20.0162C24.9291 19.7858 25.1339 19.5582 25.3393 19.3342C25.5604 19.1176 25.7944 18.9116 26.0198 18.7014C26.2657 18.506 26.5062 18.3102 26.7619 18.1212L27.5613 17.6005C27.8402 17.4433 28.1228 17.2963 28.4098 17.1461C28.7093 17.0203 29.0006 16.8839 29.2995 16.7613L30.2265 16.4539C30.5507 16.3732 30.8659 16.293 31.1858 16.2235C31.5058 16.1682 31.8301 16.123 32.1539 16.0811Z" fill="black"/>
</g>
<g style="mix-blend-mode:screen" opacity="0.7">
<path d="M32.5397 38.2932C32.5435 38.5799 32.5435 38.8596 32.5354 39.1426C32.5148 39.426 32.4737 39.7057 32.437 39.9887C32.3797 40.2683 32.3141 40.548 32.2403 40.8279C32.1581 41.1044 32.0516 41.3768 31.957 41.6491C31.8489 41.9219 31.7073 42.1805 31.5787 42.4464C31.4398 42.7086 31.2798 42.9602 31.1236 43.2155C30.9555 43.4635 30.7674 43.7013 30.5869 43.946C30.3901 44.1801 30.1847 44.4068 29.9799 44.6345C29.7588 44.8515 29.5248 45.0612 29.2994 45.2741C29.0535 45.4737 28.813 45.6696 28.5573 45.8617L27.7574 46.3862C27.4785 46.5435 27.1956 46.6971 26.9088 46.847L26.0191 47.242L25.0884 47.56L24.1328 47.7978C23.8869 47.8397 23.6464 47.8816 23.4032 47.9167L23.4572 47.9236L23.174 47.9517C23.1702 47.9554 23.1615 47.9554 23.1578 47.9554L23.1534 47.9236L23.1497 47.8922L23.2437 47.9028C25.7777 47.3436 28.0371 46.1112 29.6949 44.3841C31.3527 42.657 32.3227 40.5249 32.4646 38.2964V38.2928C32.5441 38.1264 32.5831 37.9479 32.5791 37.7683C32.6089 37.9437 32.5954 38.1225 32.5397 38.2932Z" fill="black"/>
</g>
</g>
<path d="M24.9535 3H8.92282C5.65174 3 3 5.65174 3 8.92282V56.0772C3 59.3483 5.65173 62 8.92282 62H24.9535" stroke="#FB640D" stroke-width="5.08749" stroke-linecap="round"/>
<path d="M68.6234 34.6055C68.6234 34.2539 68.5687 33.9414 68.4594 33.668C68.3578 33.3945 68.1742 33.1445 67.9086 32.918C67.6429 32.6914 67.2679 32.4727 66.7836 32.2617C66.307 32.043 65.6976 31.8203 64.9554 31.5938C64.1429 31.3438 63.3929 31.0664 62.7054 30.7617C62.0258 30.4492 61.432 30.0898 60.9242 29.6836C60.4164 29.2695 60.0219 28.7969 59.7406 28.2656C59.4594 27.7266 59.3187 27.1055 59.3187 26.4023C59.3187 25.707 59.4633 25.0742 59.7523 24.5039C60.0492 23.9336 60.4672 23.4414 61.0062 23.0273C61.5531 22.6055 62.1976 22.2812 62.9398 22.0547C63.682 21.8203 64.5023 21.7031 65.4008 21.7031C66.6664 21.7031 67.7562 21.9375 68.6703 22.4062C69.5922 22.875 70.2992 23.5039 70.7914 24.293C71.2914 25.082 71.5414 25.9531 71.5414 26.9062H68.6234C68.6234 26.3438 68.5023 25.8477 68.2601 25.418C68.0258 24.9805 67.6664 24.6367 67.182 24.3867C66.7054 24.1367 66.1 24.0117 65.3656 24.0117C64.6703 24.0117 64.0922 24.1172 63.6312 24.3281C63.1703 24.5391 62.8265 24.8242 62.6 25.1836C62.3734 25.543 62.2601 25.9492 62.2601 26.4023C62.2601 26.7227 62.3344 27.0156 62.4828 27.2812C62.6312 27.5391 62.8578 27.7812 63.1625 28.0078C63.4672 28.2266 63.85 28.4336 64.3109 28.6289C64.7719 28.8242 65.3148 29.0117 65.9398 29.1914C66.8851 29.4727 67.7094 29.7852 68.4125 30.1289C69.1156 30.4648 69.7015 30.8477 70.1703 31.2773C70.639 31.707 70.9906 32.1953 71.225 32.7422C71.4594 33.2812 71.5765 33.8945 71.5765 34.582C71.5765 35.3008 71.432 35.9492 71.1429 36.5273C70.8539 37.0977 70.4398 37.5859 69.9008 37.9922C69.3695 38.3906 68.7289 38.6992 67.9789 38.918C67.2367 39.1289 66.4086 39.2344 65.4945 39.2344C64.6742 39.2344 63.8656 39.125 63.0687 38.9062C62.2797 38.6875 61.5609 38.3555 60.9125 37.9102C60.264 37.457 59.7484 36.8945 59.3656 36.2227C58.9828 35.543 58.7914 34.75 58.7914 33.8438H61.7328C61.7328 34.3984 61.8265 34.8711 62.014 35.2617C62.2094 35.6523 62.4789 35.9727 62.8226 36.2227C63.1664 36.4648 63.5648 36.6445 64.0179 36.7617C64.4789 36.8789 64.9711 36.9375 65.4945 36.9375C66.182 36.9375 66.7562 36.8398 67.2172 36.6445C67.6859 36.4492 68.0375 36.1758 68.2719 35.8242C68.5062 35.4727 68.6234 35.0664 68.6234 34.6055ZM79.9494 26.3203V28.3828H72.8009V26.3203H79.9494ZM74.8634 23.2148H77.6876V35.4961C77.6876 35.8867 77.7423 36.1875 77.8517 36.3984C77.9689 36.6016 78.129 36.7383 78.3322 36.8086C78.5353 36.8789 78.7736 36.9141 79.047 36.9141C79.2423 36.9141 79.4298 36.9023 79.6095 36.8789C79.7892 36.8555 79.9337 36.832 80.0431 36.8086L80.0548 38.9648C79.8204 39.0352 79.547 39.0977 79.2345 39.1523C78.9298 39.207 78.5783 39.2344 78.1798 39.2344C77.5314 39.2344 76.9572 39.1211 76.4572 38.8945C75.9572 38.6602 75.5665 38.2812 75.2853 37.7578C75.004 37.2344 74.8634 36.5391 74.8634 35.6719V23.2148ZM81.5487 32.8008V32.5312C81.5487 31.6172 81.6815 30.7695 81.9472 29.9883C82.2128 29.1992 82.5956 28.5156 83.0956 27.9375C83.6034 27.3516 84.2206 26.8984 84.9472 26.5781C85.6815 26.25 86.5097 26.0859 87.4315 26.0859C88.3612 26.0859 89.1894 26.25 89.9159 26.5781C90.6503 26.8984 91.2714 27.3516 91.7792 27.9375C92.287 28.5156 92.6737 29.1992 92.9394 29.9883C93.205 30.7695 93.3378 31.6172 93.3378 32.5312V32.8008C93.3378 33.7148 93.205 34.5625 92.9394 35.3438C92.6737 36.125 92.287 36.8086 91.7792 37.3945C91.2714 37.9727 90.6542 38.4258 89.9276 38.7539C89.2011 39.0742 88.3769 39.2344 87.455 39.2344C86.5253 39.2344 85.6933 39.0742 84.9589 38.7539C84.2323 38.4258 83.6151 37.9727 83.1073 37.3945C82.5995 36.8086 82.2128 36.125 81.9472 35.3438C81.6815 34.5625 81.5487 33.7148 81.5487 32.8008ZM84.3729 32.5312V32.8008C84.3729 33.3711 84.4315 33.9102 84.5487 34.418C84.6659 34.9258 84.8495 35.3711 85.0995 35.7539C85.3495 36.1367 85.6698 36.4375 86.0604 36.6562C86.4511 36.875 86.9159 36.9844 87.455 36.9844C87.9784 36.9844 88.4315 36.875 88.8144 36.6562C89.205 36.4375 89.5253 36.1367 89.7753 35.7539C90.0253 35.3711 90.2089 34.9258 90.3261 34.418C90.4511 33.9102 90.5136 33.3711 90.5136 32.8008V32.5312C90.5136 31.9688 90.4511 31.4375 90.3261 30.9375C90.2089 30.4297 90.0214 29.9805 89.7636 29.5898C89.5136 29.1992 89.1933 28.8945 88.8026 28.6758C88.4198 28.4492 87.9628 28.3359 87.4315 28.3359C86.9003 28.3359 86.4394 28.4492 86.0487 28.6758C85.6659 28.8945 85.3495 29.1992 85.0995 29.5898C84.8495 29.9805 84.6659 30.4297 84.5487 30.9375C84.4315 31.4375 84.3729 31.9688 84.3729 32.5312ZM101.125 36.9844C101.586 36.9844 102 36.8945 102.367 36.7148C102.742 36.5273 103.043 36.2695 103.269 35.9414C103.504 35.6133 103.632 35.2344 103.656 34.8047H106.316C106.3 35.625 106.058 36.3711 105.59 37.043C105.121 37.7148 104.5 38.25 103.726 38.6484C102.953 39.0391 102.097 39.2344 101.16 39.2344C100.191 39.2344 99.3473 39.0703 98.6286 38.7422C97.9098 38.4062 97.3122 37.9453 96.8356 37.3594C96.359 36.7734 95.9997 36.0977 95.7575 35.332C95.5231 34.5664 95.4059 33.7461 95.4059 32.8711V32.4609C95.4059 31.5859 95.5231 30.7656 95.7575 30C95.9997 29.2266 96.359 28.5469 96.8356 27.9609C97.3122 27.375 97.9098 26.918 98.6286 26.5898C99.3473 26.2539 100.187 26.0859 101.148 26.0859C102.164 26.0859 103.054 26.2891 103.82 26.6953C104.586 27.0938 105.187 27.6523 105.625 28.3711C106.07 29.082 106.3 29.9102 106.316 30.8555H103.656C103.632 30.3867 103.515 29.9648 103.304 29.5898C103.101 29.207 102.812 28.9023 102.437 28.6758C102.07 28.4492 101.629 28.3359 101.113 28.3359C100.543 28.3359 100.07 28.4531 99.695 28.6875C99.32 28.9141 99.027 29.2266 98.8161 29.625C98.6051 30.0156 98.4528 30.457 98.359 30.9492C98.2731 31.4336 98.2301 31.9375 98.2301 32.4609V32.8711C98.2301 33.3945 98.2731 33.9023 98.359 34.3945C98.445 34.8867 98.5934 35.3281 98.8044 35.7188C99.0231 36.1016 99.32 36.4102 99.695 36.6445C100.07 36.8711 100.547 36.9844 101.125 36.9844ZM111.572 21V39H108.736V21H111.572ZM119.447 26.3203L113.927 32.4375L110.904 35.5312L110.165 33.1406L112.451 30.3164L116.037 26.3203H119.447ZM116.646 39L112.533 33.0469L114.314 31.0664L119.915 39H116.646ZM128.159 31.2891H123.812L123.788 29.1445H127.585C128.226 29.1445 128.769 29.0508 129.214 28.8633C129.667 28.668 130.011 28.3906 130.245 28.0312C130.48 27.6641 130.597 27.2227 130.597 26.707C130.597 26.1367 130.487 25.6719 130.269 25.3125C130.05 24.9531 129.714 24.6914 129.261 24.5273C128.816 24.3633 128.245 24.2812 127.55 24.2812H124.702V39H121.761V21.9375H127.55C128.487 21.9375 129.323 22.0273 130.058 22.207C130.8 22.3867 131.429 22.668 131.945 23.0508C132.468 23.4258 132.862 23.9023 133.128 24.4805C133.402 25.0586 133.538 25.7461 133.538 26.543C133.538 27.2461 133.37 27.8906 133.034 28.4766C132.698 29.0547 132.202 29.5273 131.546 29.8945C130.89 30.2617 130.073 30.4805 129.097 30.5508L128.159 31.2891ZM128.03 39H122.886L124.21 36.668H128.03C128.695 36.668 129.249 36.5586 129.695 36.3398C130.14 36.1133 130.472 35.8047 130.691 35.4141C130.917 35.0156 131.03 34.5508 131.03 34.0195C131.03 33.4648 130.933 32.9844 130.737 32.5781C130.542 32.1641 130.234 31.8477 129.812 31.6289C129.39 31.4023 128.839 31.2891 128.159 31.2891H124.855L124.878 29.1445H129.179L129.847 29.9531C130.784 29.9844 131.554 30.1914 132.155 30.5742C132.765 30.957 133.218 31.4531 133.515 32.0625C133.812 32.6719 133.96 33.3281 133.96 34.0312C133.96 35.1172 133.722 36.0273 133.245 36.7617C132.777 37.4961 132.101 38.0547 131.218 38.4375C130.335 38.8125 129.273 39 128.03 39ZM136.345 32.8008V32.5312C136.345 31.6172 136.477 30.7695 136.743 29.9883C137.009 29.1992 137.392 28.5156 137.892 27.9375C138.399 27.3516 139.017 26.8984 139.743 26.5781C140.477 26.25 141.306 26.0859 142.227 26.0859C143.157 26.0859 143.985 26.25 144.712 26.5781C145.446 26.8984 146.067 27.3516 146.575 27.9375C147.083 28.5156 147.47 29.1992 147.735 29.9883C148.001 30.7695 148.134 31.6172 148.134 32.5312V32.8008C148.134 33.7148 148.001 34.5625 147.735 35.3438C147.47 36.125 147.083 36.8086 146.575 37.3945C146.067 37.9727 145.45 38.4258 144.724 38.7539C143.997 39.0742 143.173 39.2344 142.251 39.2344C141.321 39.2344 140.489 39.0742 139.755 38.7539C139.028 38.4258 138.411 37.9727 137.903 37.3945C137.395 36.8086 137.009 36.125 136.743 35.3438C136.477 34.5625 136.345 33.7148 136.345 32.8008ZM139.169 32.5312V32.8008C139.169 33.3711 139.227 33.9102 139.345 34.418C139.462 34.9258 139.645 35.3711 139.895 35.7539C140.145 36.1367 140.466 36.4375 140.856 36.6562C141.247 36.875 141.712 36.9844 142.251 36.9844C142.774 36.9844 143.227 36.875 143.61 36.6562C144.001 36.4375 144.321 36.1367 144.571 35.7539C144.821 35.3711 145.005 34.9258 145.122 34.418C145.247 33.9102 145.31 33.3711 145.31 32.8008V32.5312C145.31 31.9688 145.247 31.4375 145.122 30.9375C145.005 30.4297 144.817 29.9805 144.56 29.5898C144.31 29.1992 143.989 28.8945 143.599 28.6758C143.216 28.4492 142.759 28.3359 142.227 28.3359C141.696 28.3359 141.235 28.4492 140.845 28.6758C140.462 28.8945 140.145 29.1992 139.895 29.5898C139.645 29.9805 139.462 30.4297 139.345 30.9375C139.227 31.4375 139.169 31.9688 139.169 32.5312ZM150.202 32.8008V32.5312C150.202 31.6172 150.335 30.7695 150.6 29.9883C150.866 29.1992 151.249 28.5156 151.749 27.9375C152.257 27.3516 152.874 26.8984 153.6 26.5781C154.335 26.25 155.163 26.0859 156.085 26.0859C157.014 26.0859 157.842 26.25 158.569 26.5781C159.303 26.8984 159.925 27.3516 160.432 27.9375C160.94 28.5156 161.327 29.1992 161.592 29.9883C161.858 30.7695 161.991 31.6172 161.991 32.5312V32.8008C161.991 33.7148 161.858 34.5625 161.592 35.3438C161.327 36.125 160.94 36.8086 160.432 37.3945C159.925 37.9727 159.307 38.4258 158.581 38.7539C157.854 39.0742 157.03 39.2344 156.108 39.2344C155.178 39.2344 154.346 39.0742 153.612 38.7539C152.885 38.4258 152.268 37.9727 151.76 37.3945C151.253 36.8086 150.866 36.125 150.6 35.3438C150.335 34.5625 150.202 33.7148 150.202 32.8008ZM153.026 32.5312V32.8008C153.026 33.3711 153.085 33.9102 153.202 34.418C153.319 34.9258 153.503 35.3711 153.753 35.7539C154.003 36.1367 154.323 36.4375 154.714 36.6562C155.104 36.875 155.569 36.9844 156.108 36.9844C156.632 36.9844 157.085 36.875 157.467 36.6562C157.858 36.4375 158.178 36.1367 158.428 35.7539C158.678 35.3711 158.862 34.9258 158.979 34.418C159.104 33.9102 159.167 33.3711 159.167 32.8008V32.5312C159.167 31.9688 159.104 31.4375 158.979 30.9375C158.862 30.4297 158.675 29.9805 158.417 29.5898C158.167 29.1992 157.846 28.8945 157.456 28.6758C157.073 28.4492 156.616 28.3359 156.085 28.3359C155.553 28.3359 155.092 28.4492 154.702 28.6758C154.319 28.8945 154.003 29.1992 153.753 29.5898C153.503 29.9805 153.319 30.4297 153.202 30.9375C153.085 31.4375 153.026 31.9688 153.026 32.5312ZM167.446 21V39H164.61V21H167.446ZM175.321 26.3203L169.801 32.4375L166.778 35.5312L166.04 33.1406L168.325 30.3164L171.911 26.3203H175.321ZM172.52 39L168.407 33.0469L170.188 31.0664L175.79 39H172.52Z" fill="black"/>
<defs>
<linearGradient id="paint0_linear_22_755" x1="41.5224" y1="20.8561" x2="23.5855" y2="20.8561" gradientUnits="userSpaceOnUse">
<stop stop-color="#57C6E9"/>
<stop offset="0.322" stop-color="#F36325"/>
<stop offset="1" stop-color="#57C6E9"/>
</linearGradient>
<linearGradient id="paint1_linear_22_755" x1="13.4961" y1="43.1114" x2="30.7306" y2="43.1114" gradientUnits="userSpaceOnUse">
<stop stop-color="#57C6E9"/>
<stop offset="0.322" stop-color="#FB640D"/>
<stop offset="1" stop-color="#17A1FA"/>
</linearGradient>
<linearGradient id="paint2_linear_22_755" x1="27.6198" y1="15.8243" x2="27.6198" y2="48.7837" gradientUnits="userSpaceOnUse">
<stop stop-color="#F57A09"/>
<stop offset="0.162" stop-color="#E9AF57"/>
<stop offset="0.307" stop-color="#F59709"/>
<stop offset="0.446" stop-color="#E9D257"/>
<stop offset="0.581" stop-color="#F5C109"/>
<stop offset="0.712" stop-color="#FE7F0B"/>
<stop offset="0.842" stop-color="#F93F00"/>
<stop offset="0.967" stop-color="#F81000"/>
<stop offset="1" stop-color="#F8B300"/>
</linearGradient>
</defs>
</svg>
