<svg width="34" height="34" viewBox="0 0 34 34" fill="none" xmlns="http://www.w3.org/2000/svg">
<path d="M21.9584 19.8334H20.8393L20.4426 19.4509C21.3279 18.4224 21.975 17.2108 22.3375 15.903C22.6999 14.5952 22.7688 13.2235 22.5393 11.8859C21.8734 7.94759 18.5868 4.80259 14.6201 4.32092C13.2255 4.1445 11.8091 4.28943 10.4792 4.74463C9.14929 5.19983 7.94113 5.95323 6.94718 6.94718C5.95323 7.94113 5.19983 9.14929 4.74463 10.4792C4.28943 11.8091 4.1445 13.2255 4.32092 14.6201C4.80259 18.5868 7.94759 21.8734 11.8859 22.5393C13.2235 22.7688 14.5952 22.6999 15.903 22.3375C17.2108 21.975 18.4224 21.3279 19.4509 20.4426L19.8334 20.8393V21.9584L25.8543 27.9793C26.4351 28.5601 27.3843 28.5601 27.9651 27.9793C28.5459 27.3984 28.5459 26.4493 27.9651 25.8684L21.9584 19.8334ZM13.4584 19.8334C9.93092 19.8334 7.08342 16.9859 7.08342 13.4584C7.08342 9.93092 9.93092 7.08342 13.4584 7.08342C16.9859 7.08342 19.8334 9.93092 19.8334 13.4584C19.8334 16.9859 16.9859 19.8334 13.4584 19.8334Z" fill="#2007B4"/>
</svg>
