<svg width="26" height="27" viewBox="0 0 26 27" fill="none" xmlns="http://www.w3.org/2000/svg">
<path d="M25.9823 13.548C25.9823 12.4582 25.8938 11.663 25.7025 10.8384H13.2589V15.7569H20.563C20.4158 16.9792 19.6206 18.8199 17.8534 20.0569L17.8286 20.2215L21.763 23.2695L22.0356 23.2967C24.539 20.9847 25.9823 17.5829 25.9823 13.548Z" fill="#4285F4"/>
<path d="M13.2589 26.507C16.8373 26.507 19.8414 25.3289 22.0357 23.2967L17.8534 20.0569C16.7342 20.8374 15.2321 21.3823 13.2589 21.3823C9.75407 21.3823 6.77941 19.0703 5.71902 15.8748L5.5636 15.888L1.47251 19.0541L1.41901 19.2028C3.59846 23.5323 8.07522 26.507 13.2589 26.507Z" fill="#34A853"/>
<path d="M5.71907 15.8749C5.43928 15.0503 5.27735 14.1666 5.27735 13.2536C5.27735 12.3406 5.43928 11.457 5.70435 10.6324L5.69694 10.4567L1.55458 7.23975L1.41905 7.30421C0.520793 9.10083 0.00537109 11.1184 0.00537109 13.2536C0.00537109 15.3889 0.520793 17.4064 1.41905 19.203L5.71907 15.8749Z" fill="#FBBC05"/>
<path d="M13.2589 5.12467C15.7476 5.12467 17.4263 6.19968 18.3836 7.09803L22.124 3.44592C19.8268 1.31063 16.8373 0 13.2589 0C8.07522 0 3.59846 2.97466 1.41901 7.30412L5.7043 10.6323C6.77941 7.43671 9.75407 5.12467 13.2589 5.12467Z" fill="#EB4335"/>
</svg>
