<svg width="32" height="27" viewBox="0 0 32 27" fill="none" xmlns="http://www.w3.org/2000/svg">
<path d="M31.9985 3.18098C30.8003 3.71178 29.5294 4.06019 28.2281 4.21463C29.5836 3.40221 30.6243 2.11571 31.1144 0.582861C29.8259 1.34752 28.4161 1.88627 26.946 2.17583C25.7484 0.90008 24.0425 0.102783 22.1543 0.102783C18.5289 0.102783 15.5896 3.042 15.5896 6.66714C15.5896 7.18172 15.6477 7.68267 15.7595 8.16325C10.3038 7.8894 5.4668 5.27603 2.22899 1.30442C1.66405 2.27395 1.34033 3.40171 1.34033 4.60459C1.34033 6.88212 2.49934 8.8913 4.26067 10.0686C3.21821 10.0359 2.19868 9.75435 1.28721 9.24739C1.28684 9.27489 1.28684 9.30239 1.28684 9.33001C1.28684 12.5106 3.54962 15.1638 6.55257 15.7669C5.5859 16.0298 4.57193 16.0683 3.58811 15.8794C4.42341 18.4874 6.84779 20.3852 9.72026 20.4383C7.47361 22.1989 4.64301 23.2484 1.56756 23.2484C1.03761 23.2484 0.515162 23.2173 0.00158691 23.1567C2.90668 25.0192 6.35722 26.106 10.0644 26.106C22.1391 26.106 28.7418 16.1031 28.7418 7.42844C28.7418 7.14372 28.7355 6.86062 28.7228 6.57915C30.0079 5.6501 31.1172 4.49937 31.9985 3.18098Z" fill="#55ACEE"/>
</svg>
