<svg width="42" height="36" viewBox="0 0 42 36" fill="none" xmlns="http://www.w3.org/2000/svg">
<path fill-rule="evenodd" clip-rule="evenodd" d="M32.5933 18.753L35.5129 16.8587L27.6497 0.911279C27.6497 0.911279 27.0023 -0.557876 25.8413 0.234647L24.9623 0.83393C24.9623 0.83393 23.884 1.37522 24.5807 2.76697L32.5933 18.753ZM24.5808 10.1124L21.7274 8.02474L22.9301 5.74377C23.5937 4.6613 25.0461 6.05112 25.0461 6.05112C26.3483 7.10458 25.659 8.02474 25.659 8.02474L24.5808 10.1124ZM14.2458 22.5998L17.2982 24.9774L24.5808 10.1124L21.7274 8.02474L14.2458 22.5998ZM14.2458 22.5998L17.2982 24.9774L12.6532 30.0709C12.6532 30.0709 12.3215 30.3802 12.421 29.8389L14.2458 22.5998ZM34.5673 22.8898L35.7783 22.0538L37.5076 20.8601C38.1421 27.5978 38.3419 26.9511 38.3419 30.0709C38.3419 30.0709 37.153 27.741 34.5673 22.8898ZM35.5129 16.8587L32.5933 18.753L34.5673 22.8898L37.5076 20.8601L35.5129 16.8587ZM18.1801 14.9353L11.3095 14.9498C10.591 16.5865 10.6559 17.4386 11.3095 18.8497L16.1559 18.8787L18.1801 14.9353ZM22.2109 14.9498L30.6798 14.9353L32.6532 18.8787H20.286L22.2109 14.9498ZM41.4684 14.9353L34.5645 14.9353L36.5102 18.8594L41.4684 18.8787C42.1926 17.456 42.1615 16.6021 41.4684 14.9353Z" fill="#FB640D"/>
<path d="M30.1589 20.1058C30.1589 23.321 29.1312 26.452 27.2259 29.0419C25.3206 31.6317 22.6374 33.5447 19.5679 34.5017C16.4984 35.4588 13.2034 35.4096 10.1639 34.3616C7.1243 33.3135 4.49929 31.3213 2.67202 28.6758C0.84474 26.0304 -0.0891365 22.8701 0.00670044 19.6563C0.102537 16.4426 1.22307 13.3436 3.20474 10.8117C5.18641 8.27978 7.92546 6.44757 11.0221 5.58247C14.1187 4.71737 17.4108 4.86468 20.4178 6.0029L19.3248 8.89029C16.9335 7.9851 14.3154 7.86795 11.8528 8.55593C9.39014 9.24391 7.21187 10.701 5.63593 12.7145C4.05998 14.728 3.16886 17.1926 3.09265 19.7483C3.01643 22.3041 3.75911 24.8174 5.21227 26.9212C6.66544 29.0251 8.75301 30.6094 11.1703 31.4429C13.5875 32.2764 16.2079 32.3154 18.6489 31.5544C21.09 30.7933 23.2238 29.2719 24.7391 27.2123C26.2543 25.1527 27.0716 22.6627 27.0716 20.1058H30.1589Z" fill="url(#paint0_angular_617_3849)"/>
<defs>
<radialGradient id="paint0_angular_617_3849" cx="0" cy="0" r="1" gradientUnits="userSpaceOnUse" gradientTransform="translate(15.0794 20.1058) rotate(90) scale(15.0794)">
<stop offset="0.0497916" stop-color="#2007B4"/>
<stop offset="0.12166" stop-color="#FB640D"/>
<stop offset="0.215917" stop-color="#2007B4"/>
<stop offset="0.294279" stop-color="#FB640D"/>
<stop offset="0.369767" stop-color="#2007B4"/>
<stop offset="0.454064" stop-color="#FB640D"/>
<stop offset="0.529635" stop-color="#2007B4"/>
<stop offset="0.618552" stop-color="#FB640D"/>
<stop offset="0.758458" stop-color="#2007B4"/>
<stop offset="0.848958" stop-color="#FB640D"/>
<stop offset="0.911458" stop-color="#2007B4"/>
<stop offset="0.980909" stop-color="#FB640D"/>
</radialGradient>
</defs>
</svg>
