<svg width="22" height="28" viewBox="0 0 22 28" fill="none" xmlns="http://www.w3.org/2000/svg">
<path d="M18.5 10.5C18.5 8.51088 17.7098 6.60322 16.3033 5.1967C14.8968 3.79018 12.9891 3 11 3C9.01088 3 7.10322 3.79018 5.6967 5.1967C4.29018 6.60322 3.5 8.51088 3.5 10.5V20.5H18.5V10.5ZM21 21.3338L21.5 22C21.5696 22.0929 21.6121 22.2033 21.6225 22.3189C21.6329 22.4345 21.6109 22.5507 21.559 22.6545C21.5071 22.7583 21.4273 22.8456 21.3286 22.9067C21.2298 22.9677 21.1161 23 21 23H1C0.88393 23 0.770153 22.9677 0.671418 22.9067C0.572683 22.8456 0.492891 22.7583 0.440983 22.6545C0.389075 22.5507 0.367102 22.4345 0.377526 22.3189C0.387949 22.2033 0.430358 22.0929 0.5 22L1 21.3338V10.5C1 7.84784 2.05357 5.3043 3.92893 3.42893C5.8043 1.55357 8.34784 0.5 11 0.5C13.6522 0.5 16.1957 1.55357 18.0711 3.42893C19.9464 5.3043 21 7.84784 21 10.5V21.3338ZM7.875 24.25H14.125C14.125 25.0788 13.7958 25.8737 13.2097 26.4597C12.6237 27.0458 11.8288 27.375 11 27.375C10.1712 27.375 9.37634 27.0458 8.79029 26.4597C8.20424 25.8737 7.875 25.0788 7.875 24.25Z" fill="#2007B4"/>
</svg>
