<svg width="443" height="432" viewBox="0 0 443 432" fill="none" xmlns="http://www.w3.org/2000/svg">
<g clip-path="url(#clip0_192_1788)">
<path d="M282.552 96.7664H258.981V297.722C258.981 300.875 258.36 303.997 257.154 306.91C255.947 309.823 254.179 312.47 251.949 314.699C249.72 316.929 247.073 318.697 244.16 319.904C241.247 321.111 238.125 321.732 234.972 321.732H54.7622V321.961C54.7622 325.114 55.3832 328.236 56.5898 331.149C57.7963 334.062 59.5649 336.709 61.7943 338.938C64.0238 341.168 66.6706 342.936 69.5835 344.143C72.4964 345.35 75.6185 345.971 78.7714 345.971H282.552C285.705 345.971 288.827 345.35 291.74 344.143C294.653 342.936 297.3 341.168 299.529 338.938C301.759 336.709 303.527 334.062 304.734 331.149C305.941 328.236 306.562 325.114 306.562 321.961V120.776C306.562 114.408 304.032 108.301 299.529 103.799C295.027 99.2959 288.92 96.7664 282.552 96.7664Z" fill="#F2F2F2"/>
<path d="M394.29 416.116C394.707 416.136 395.12 416.026 395.473 415.803C395.826 415.579 396.102 415.253 396.263 414.867C396.424 414.482 396.463 414.056 396.374 413.648C396.285 413.24 396.073 412.869 395.766 412.585L395.627 412.03C395.645 411.986 395.663 411.942 395.682 411.897C396.102 410.904 396.807 410.058 397.707 409.464C398.607 408.87 399.662 408.555 400.74 408.559C401.819 408.563 402.872 408.886 403.767 409.486C404.663 410.087 405.361 410.939 405.774 411.935C407.424 415.91 409.526 419.892 410.043 424.095C410.271 425.953 410.175 427.837 409.759 429.662C413.636 421.205 415.649 412.014 415.662 402.711C415.663 400.376 415.533 398.044 415.273 395.724C415.059 393.822 414.761 391.934 414.381 390.059C412.303 379.886 407.841 370.352 401.363 362.238C398.228 360.527 395.692 357.897 394.098 354.7C393.52 353.551 393.112 352.325 392.886 351.059C393.24 351.105 394.22 345.719 393.953 345.388C394.446 344.64 395.328 344.268 395.866 343.538C398.544 339.909 402.232 340.542 404.158 345.475C408.272 347.551 408.311 350.994 405.787 354.306C404.181 356.413 403.961 359.264 402.552 361.519C402.697 361.705 402.848 361.885 402.993 362.07C405.642 365.477 407.952 369.136 409.888 372.994C409.417 368.672 409.979 364.3 411.528 360.238C413.097 356.452 416.039 353.263 418.629 349.99C419.314 349.111 420.245 348.454 421.303 348.104C422.361 347.753 423.499 347.724 424.574 348.021C425.648 348.317 426.611 348.925 427.34 349.768C428.069 350.612 428.532 351.652 428.67 352.758C428.675 352.806 428.68 352.855 428.685 352.903C428.3 353.12 427.924 353.35 427.555 353.594C427.092 353.903 426.733 354.345 426.526 354.862C426.318 355.379 426.272 355.946 426.392 356.49C426.513 357.033 426.795 357.528 427.201 357.908C427.607 358.289 428.119 358.538 428.669 358.623L428.726 358.632C428.589 360.018 428.346 361.393 428.001 362.743C431.324 375.595 424.149 380.275 413.905 380.486C413.679 380.602 413.459 380.718 413.232 380.828C415.178 386.34 416.398 392.083 416.862 397.91C417.125 401.348 417.11 404.801 416.816 408.237L416.833 408.115C417.575 404.295 419.613 400.848 422.603 398.356C427.042 394.709 433.315 393.366 438.105 390.434C438.614 390.108 439.206 389.933 439.811 389.932C440.416 389.93 441.009 390.102 441.519 390.426C442.03 390.75 442.437 391.214 442.693 391.762C442.949 392.31 443.042 392.92 442.963 393.52L442.943 393.648C442.229 393.939 441.534 394.274 440.862 394.651C440.477 394.868 440.1 395.099 439.732 395.342C439.269 395.652 438.91 396.094 438.703 396.61C438.495 397.127 438.449 397.694 438.569 398.238C438.689 398.781 438.971 399.276 439.378 399.657C439.784 400.037 440.296 400.286 440.846 400.371L440.902 400.38C440.943 400.386 440.978 400.392 441.018 400.397C439.798 403.31 438.086 405.992 435.956 408.324C433.878 419.543 424.954 420.607 415.407 417.34H415.401C414.354 421.892 412.836 426.323 410.872 430.561H394.695C394.637 430.381 394.585 430.195 394.533 430.015C396.03 430.11 397.533 430.02 399.009 429.749C397.809 428.276 396.608 426.792 395.408 425.319C395.381 425.291 395.356 425.262 395.333 425.232C394.724 424.478 394.109 423.73 393.5 422.976L393.5 422.975C393.468 420.665 393.733 418.359 394.29 416.116Z" fill="#F2F2F2"/>
<path d="M216.108 69.4307C216.699 70.3255 217.477 71.0814 218.388 71.646C219.3 72.2106 220.323 72.5705 221.387 72.7008C222.451 72.831 223.531 72.7286 224.552 72.4004C225.573 72.0723 226.51 71.5264 227.299 70.8004L260.933 85.9747L267.417 77.7036L227.338 59.9729C226.017 58.7357 224.289 58.0259 222.48 57.9782C220.67 57.9304 218.907 58.5479 217.522 59.7137C216.138 60.8795 215.23 62.5126 214.969 64.3035C214.708 66.0944 215.114 67.9187 216.108 69.4307Z" fill="#A0616A"/>
<path d="M360.45 78.8928L363.786 97.7959C363.941 98.6778 363.911 99.5824 363.696 100.452C363.482 101.321 363.087 102.136 362.539 102.844C361.991 103.552 361.301 104.138 360.513 104.564C359.725 104.989 358.857 105.245 357.964 105.315L301.282 109.773L234.654 79.9539L242.612 64.8474L300.451 83.1633L360.45 78.8928Z" fill="#6C63FF"/>
<path d="M227.79 65.3455H24.0093C10.7493 65.3455 0 76.0948 0 89.3547V290.54C0 303.8 10.7493 314.55 24.0093 314.55H227.79C241.05 314.55 251.799 303.8 251.799 290.54V89.3547C251.799 76.0948 241.05 65.3455 227.79 65.3455Z" fill="#F2F2F2"/>
<path d="M24.0093 70.2827C21.5048 70.2827 19.0248 70.776 16.7109 71.7344C14.397 72.6929 12.2946 74.0977 10.5236 75.8687C8.75262 77.6397 7.3478 79.7421 6.38935 82.056C5.43091 84.3699 4.93762 86.8499 4.93762 89.3544V290.54C4.93762 295.598 6.94695 300.449 10.5236 304.026C14.1002 307.603 18.9512 309.612 24.0093 309.612H154.067C166.253 309.612 178.32 307.212 189.578 302.549C200.836 297.885 211.066 291.05 219.683 282.433C228.299 273.816 235.135 263.587 239.798 252.329C244.461 241.07 246.862 229.004 246.862 216.818V89.3544C246.862 86.8499 246.368 84.3699 245.41 82.056C244.451 79.7421 243.047 77.6397 241.276 75.8687C239.505 74.0977 237.402 72.6929 235.088 71.7344C232.774 70.776 230.294 70.2827 227.79 70.2827H24.0093Z" fill="white"/>
<path d="M182.866 131.339H68.4879C67.4384 131.339 66.4318 130.922 65.6897 130.18C64.9476 129.438 64.5306 128.432 64.5306 127.382C64.5306 126.333 64.9476 125.326 65.6897 124.584C66.4318 123.842 67.4384 123.425 68.4879 123.425H182.866C183.915 123.425 184.922 123.842 185.664 124.584C186.406 125.326 186.823 126.333 186.823 127.382C186.823 128.432 186.406 129.438 185.664 130.18C184.922 130.922 183.915 131.339 182.866 131.339Z" fill="#F2F2F2"/>
<path d="M182.866 215.727H68.4879C67.4384 215.727 66.4318 215.31 65.6897 214.568C64.9476 213.826 64.5306 212.819 64.5306 211.77C64.5306 210.72 64.9476 209.714 65.6897 208.972C66.4318 208.229 67.4384 207.812 68.4879 207.812H182.866C183.915 207.812 184.922 208.229 185.664 208.972C186.406 209.714 186.823 210.72 186.823 211.77C186.823 212.819 186.406 213.826 185.664 214.568C184.922 215.31 183.915 215.727 182.866 215.727Z" fill="#F2F2F2"/>
<path d="M229.312 173.561H22.0415C20.992 173.561 19.9854 173.144 19.2433 172.402C18.5011 171.66 18.0842 170.653 18.0842 169.603C18.0842 168.554 18.5011 167.547 19.2433 166.805C19.9854 166.063 20.992 165.646 22.0415 165.646H229.312C230.362 165.646 231.368 166.063 232.11 166.805C232.853 167.547 233.27 168.554 233.27 169.603C233.27 170.653 232.853 171.66 232.11 172.402C231.368 173.144 230.362 173.561 229.312 173.561Z" fill="#F2F2F2"/>
<path d="M353.289 162.21L332.641 206.199L412.07 198.155L395.49 155.926L353.289 162.21Z" fill="#A0616A"/>
<path d="M371.755 415.043L364.224 414.979L360.891 385.254L372.005 385.349L371.755 415.043Z" fill="#A0616A"/>
<path d="M347.633 427.018C347.626 427.911 347.974 428.77 348.599 429.407C349.225 430.044 350.078 430.406 350.971 430.415L365.944 430.54L368.565 425.227L369.528 430.567L375.178 430.618L373.751 411.571L371.785 411.44L363.768 410.888L361.181 410.714L361.136 416.103L349.108 424.262C348.657 424.568 348.288 424.978 348.031 425.458C347.774 425.938 347.637 426.474 347.633 427.018Z" fill="#2F2E41"/>
<path d="M288.414 415.077L281.233 412.803L286.781 383.411L297.377 386.766L288.414 415.077Z" fill="#A0616A"/>
<path d="M261.837 419.436C261.569 420.288 261.649 421.211 262.06 422.003C262.471 422.796 263.179 423.393 264.03 423.664L278.306 428.182L282.372 423.874L281.724 429.261L287.109 430.97L291.341 412.345L289.501 411.642L282 408.758L279.578 407.833L277.952 412.971L264.058 417.235C263.537 417.395 263.063 417.679 262.676 418.062C262.29 418.446 262.002 418.917 261.837 419.436Z" fill="#2F2E41"/>
<path d="M408.453 185.784L336.232 199.017C336.232 199.017 324.648 207.682 327.747 210.786C330.846 213.889 331.326 213.408 329.29 215.444C327.255 217.48 322.853 220.201 322.809 221.983C322.766 223.764 290.447 303.663 290.447 303.663C290.447 303.663 294.038 301.867 291.345 304.561C288.652 307.254 288.652 309.479 288.652 309.479L276.083 394.335L296.495 395.536L316.482 318.175L361.063 245.904C361.063 245.904 365.486 310.352 365.672 314.638C365.857 318.925 368.551 313.538 365.857 318.925C363.164 324.311 361.369 320.72 363.164 324.311C364.96 327.902 356.696 401.009 356.696 401.009H375.327L415.285 249.478C415.285 249.478 429.502 206.157 408.453 185.784Z" fill="#2F2E41"/>
<path d="M387.177 64.5784L358.248 61.5725L350.752 71.3034L342.021 75.9539C338.326 77.9219 335.276 80.9126 333.236 84.5683C331.195 88.224 330.251 92.39 330.517 96.5681L340.721 155.926C340.721 155.926 332.101 175.334 338.027 180.165C343.953 184.995 333.446 196.959 346.107 190.938C358.768 184.916 413.438 191.835 413.438 191.835L401.767 158.619L410.485 125.979L411.445 98.6115C411.624 93.4974 410.106 88.4676 407.128 84.3062C404.15 80.1448 399.879 77.0855 394.981 75.6053L393.762 75.2369L387.177 64.5784Z" fill="#6C63FF"/>
<path d="M427.005 42.4006C427.194 50.5548 424.147 58.4504 419.769 65.3855C418.469 61.3369 416.13 57.6521 413.691 54.1396C414.921 61.7383 413.611 69.5303 409.966 76.3098C409.837 76.4017 409.704 76.4871 409.567 76.5656C405.999 78.7121 401.475 79.5815 397.614 78.0311C405.59 69.4337 406.605 55.1891 399.918 45.5458C398.025 42.8095 395.577 40.3894 394.404 37.2754C392.553 32.3069 394.332 26.8364 395.455 21.6561C396.505 16.8349 396.689 11.0976 393.454 7.56419C393.8 7.07042 394.27 6.67736 394.818 6.42532C395.365 6.17328 395.97 6.07131 396.569 6.12985C398.564 6.41155 400.015 8.14496 400.94 9.93027C401.864 11.7155 402.474 13.6942 403.763 15.2362C406.149 18.1225 410.212 18.8048 413.637 20.3259C421.93 24.0198 426.806 33.3272 427.005 42.4006Z" fill="#2F2E41"/>
<path d="M213.349 430.609C213.348 430.749 213.376 430.888 213.429 431.018C213.483 431.148 213.562 431.266 213.661 431.365C213.76 431.464 213.878 431.543 214.008 431.596C214.138 431.65 214.277 431.677 214.417 431.677H441.806C442.089 431.677 442.361 431.564 442.561 431.364C442.762 431.164 442.874 430.892 442.874 430.609C442.874 430.325 442.762 430.054 442.561 429.853C442.361 429.653 442.089 429.54 441.806 429.54H214.417C214.277 429.54 214.138 429.567 214.008 429.621C213.878 429.674 213.76 429.753 213.661 429.852C213.562 429.952 213.483 430.069 213.429 430.199C213.376 430.329 213.348 430.468 213.349 430.609Z" fill="#CCCCCC"/>
<path d="M428.795 231.391C433.258 231.391 436.875 227.773 436.875 223.311C436.875 218.849 433.258 215.231 428.795 215.231C424.333 215.231 420.716 218.849 420.716 223.311C420.716 227.773 424.333 231.391 428.795 231.391Z" fill="#6C63FF"/>
<path d="M357.198 37.7384C357.672 36.0797 354.406 46.2188 355.982 46.4018C363.161 47.2254 373.016 51.5128 378.016 53.513C378.241 53.4868 378.466 53.4607 378.685 53.428C379.221 53.3691 379.744 53.2842 380.261 53.1862C391.903 50.9833 396.381 33.0991 396.381 32.9357C396.381 32.1317 394.451 10.0496 391.411 9.72284C390.613 9.63621 389.81 9.59257 389.007 9.5921H381.464C379.903 9.25575 378.321 9.02644 376.729 8.90577H376.716C361.53 7.74879 349.557 17.0045 350.676 28.267C350.682 28.28 350.696 28.2931 350.702 28.3062C351.027 28.7899 351.312 29.2475 351.563 29.6854C351.808 30.0972 352.013 30.4894 352.192 30.862C353.576 33.7381 350.019 37.3571 352.378 38.0326C355.515 38.931 344.125 68.4602 356.545 68.4602C350.504 70.1778 355.891 42.314 357.198 37.7384Z" fill="#2F2E41"/>
<path d="M370.755 55.0647C380.618 55.0647 388.614 47.0688 388.614 37.2054C388.614 27.342 380.618 19.3462 370.755 19.3462C360.891 19.3462 352.895 27.342 352.895 37.2054C352.895 47.0688 360.891 55.0647 370.755 55.0647Z" fill="#A0616A"/>
<path d="M350.676 29.2407C350.974 29.3976 351.265 29.5413 351.563 29.6852C351.874 29.8355 352.186 29.9859 352.497 30.1231C358.477 32.8358 363.345 33.1364 366.298 29.2407C366.378 27.1908 366.838 25.1736 367.656 23.2924C367.512 25.3947 368.066 27.4858 369.232 29.2407H375.179C381.305 33.3064 384.451 33.7313 380.199 47.0789C379.014 50.7982 374.3 72.4407 376.155 75.6501C376.691 75.5913 382.398 51.8861 382.914 51.7881C394.557 49.5852 401.954 30.4042 401.007 29.3191C401.012 26.2335 400.302 23.1887 398.934 20.4229C397.204 16.9188 394.506 13.9837 391.16 11.9646C389.165 10.9975 387.086 10.2163 384.948 9.63106C384.895 9.61797 384.848 9.60489 384.795 9.59184C384.14 9.41534 383.471 9.25193 382.802 9.11466C381.42 8.82288 380.023 8.61119 378.616 8.48062C378.517 8.47408 378.418 8.46753 378.325 8.46753C377.764 8.46884 377.213 8.62004 376.729 8.90551C376.722 8.90551 376.722 8.91202 376.716 8.91202C376.37 9.11393 376.068 9.38282 375.828 9.70292C375.405 10.2415 375.177 10.9072 375.179 11.592H368.557C368.312 11.592 368.067 11.5985 367.822 11.6116C363.402 11.7626 359.197 13.5576 356.031 16.6453C352.864 19.733 350.964 23.8912 350.702 28.306C350.682 28.6197 350.676 28.9269 350.676 29.2407Z" fill="#2F2E41"/>
<path d="M389.724 23.5316C396.222 23.5316 401.49 18.2638 401.49 11.7658C401.49 5.26772 396.222 0 389.724 0C383.226 0 377.958 5.26772 377.958 11.7658C377.958 18.2638 383.226 23.5316 389.724 23.5316Z" fill="#2F2E41"/>
<path d="M428.886 226.643C429.46 225.737 429.831 224.718 429.972 223.655C430.114 222.592 430.023 221.511 429.706 220.487C429.388 219.463 428.852 218.52 428.135 217.723C427.417 216.927 426.535 216.295 425.549 215.873L425.608 178.975L415.406 176.449L415.657 220.275C415.07 221.987 415.131 223.854 415.828 225.524C416.526 227.194 417.812 228.55 419.443 229.335C421.074 230.12 422.936 230.279 424.676 229.783C426.416 229.287 427.914 228.169 428.886 226.643Z" fill="#A0616A"/>
<path d="M378.365 91.1L394.241 80.3106C394.981 79.8073 395.819 79.4644 396.7 79.3039C397.581 79.1434 398.486 79.169 399.357 79.3789C400.227 79.5888 401.044 79.9784 401.755 80.5227C402.466 81.067 403.056 81.754 403.486 82.5396L430.78 132.417L430.885 205.412L413.844 204.344L406.848 144.08L378.365 91.1Z" fill="#6C63FF"/>
<path d="M256.436 256.644H86.7626C83.0722 256.644 79.5328 258.11 76.9232 260.719C74.3137 263.329 72.8477 266.868 72.8477 270.559C72.8477 274.249 74.3137 277.789 76.9232 280.398C79.5328 283.008 83.0722 284.474 86.7626 284.474H256.436C260.126 284.474 263.665 283.008 266.275 280.398C268.885 277.789 270.351 274.249 270.351 270.559C270.351 266.868 268.885 263.329 266.275 260.719C263.665 258.11 260.126 256.644 256.436 256.644Z" fill="white"/>
<path d="M256.435 285.372H86.7625C82.834 285.372 79.0663 283.811 76.2884 281.033C73.5104 278.255 71.9498 274.487 71.9498 270.559C71.9498 266.63 73.5104 262.863 76.2884 260.085C79.0663 257.307 82.834 255.746 86.7625 255.746H256.435C260.364 255.746 264.132 257.307 266.91 260.085C269.688 262.863 271.248 266.63 271.248 270.559C271.248 274.487 269.688 278.255 266.91 281.033C264.132 283.811 260.364 285.372 256.435 285.372ZM86.7625 257.542C83.3102 257.542 79.9992 258.913 77.558 261.354C75.1168 263.795 73.7453 267.106 73.7453 270.559C73.7453 274.011 75.1168 277.322 77.558 279.763C79.9992 282.205 83.3102 283.576 86.7625 283.576H256.435C259.888 283.576 263.199 282.205 265.64 279.763C268.081 277.322 269.453 274.011 269.453 270.559C269.453 267.106 268.081 263.795 265.64 261.354C263.199 258.913 259.888 257.542 256.435 257.542H86.7625Z" fill="#6C63FF"/>
<path d="M266.44 317.37H191.563C190.514 317.37 189.507 316.953 188.765 316.211C188.023 315.468 187.606 314.462 187.606 313.412C187.606 312.363 188.023 311.356 188.765 310.614C189.507 309.872 190.514 309.455 191.563 309.455H266.44C267.49 309.455 268.497 309.872 269.239 310.614C269.981 311.356 270.398 312.363 270.398 313.412C270.398 314.462 269.981 315.468 269.239 316.211C268.497 316.953 267.49 317.37 266.44 317.37Z" fill="#6C63FF"/>
</g>
<defs>
<clipPath id="clip0_192_1788">
<rect width="443" height="431.677" fill="white"/>
</clipPath>
</defs>
</svg>
