<svg width="30" height="30" viewBox="0 0 30 30" fill="none" xmlns="http://www.w3.org/2000/svg">
<path d="M22.5 12.5C22.5 10.5109 21.7098 8.60322 20.3033 7.1967C18.8968 5.79018 16.9891 5 15 5C13.0109 5 11.1032 5.79018 9.6967 7.1967C8.29018 8.60322 7.5 10.5109 7.5 12.5V22.5H22.5V12.5ZM25 23.3338L25.5 24C25.5696 24.0929 25.6121 24.2033 25.6225 24.3189C25.6329 24.4345 25.6109 24.5507 25.559 24.6545C25.5071 24.7583 25.4273 24.8456 25.3286 24.9067C25.2298 24.9677 25.1161 25 25 25H5C4.88393 25 4.77015 24.9677 4.67142 24.9067C4.57268 24.8456 4.49289 24.7583 4.44098 24.6545C4.38908 24.5507 4.3671 24.4345 4.37753 24.3189C4.38795 24.2033 4.43036 24.0929 4.5 24L5 23.3338V12.5C5 9.84784 6.05357 7.3043 7.92893 5.42893C9.8043 3.55357 12.3478 2.5 15 2.5C17.6522 2.5 20.1957 3.55357 22.0711 5.42893C23.9464 7.3043 25 9.84784 25 12.5V23.3338ZM11.875 26.25H18.125C18.125 27.0788 17.7958 27.8737 17.2097 28.4597C16.6237 29.0458 15.8288 29.375 15 29.375C14.1712 29.375 13.3763 29.0458 12.7903 28.4597C12.2042 27.8737 11.875 27.0788 11.875 26.25Z" fill="#2007B4"/>
</svg>
